<svg xmlns="http://www.w3.org/2000/svg" width="152.43" height="158.997" viewBox="0 0 152.43 158.997">
  <g id="Group_3262" data-name="Group 3262" transform="translate(-1218.576 157.317)">
    <path id="Path_1228" data-name="Path 1228" d="M1250.351-34.605a5,5,0,0,1-4.138,2.018c-4.548.08-9.094.35-13.642.409-5.783.074-10.691-5.279-10.349-11.052.2-3.314.23-6.637.38-9.954a12.43,12.43,0,0,1,.383-2.613,2.333,2.333,0,0,1,2.57-1.926c1.752.173,3.479.592,5.221.873a77.5,77.5,0,0,0,9.338,1.4c4.369.164,7.78-2.05,10.265-5.546a46.469,46.469,0,0,0,3.652-6.14c.642-1.286,1.18-1.688,2.652-1.194,4.926,1.65,9.886,2.078,14.734-.355a7.738,7.738,0,0,0,2.232-1.678c-5.837,1.232-11.6,2.616-17.243-1.755l8.461-4.136c0-.128,0-.257,0-.385-.641-.051-1.281-.122-1.923-.148-2.821-.115-5.673,0-8.457-.381-3.148-.431-5.587-2.211-7.476-5.292l17.532-2.25q.011-.257.023-.515c-1.665-.471-3.335-.928-5-1.416-4.27-1.255-8.315-2.936-11.04-6.687a48.588,48.588,0,0,1-2.674-4.634l.41-.442,14.065,2.787.211-.347c-6.324-4.38-12.069-9.25-13.876-17.166a60.682,60.682,0,0,1-.794-6.671l.6-.281c1.024.944,2.12,1.822,3.06,2.844,4.69,5.1,10.836,7.847,17.006,10.513,4.481,1.936,9.049,3.672,13.6,5.437,5.132,1.989,8.1,5.577,9.289,11.035a85.189,85.189,0,0,0,3.837,11.826c1.679,4.454,3.622,8.808,5.526,13.386a3.767,3.767,0,0,0,1.008-3.846,31.855,31.855,0,0,0-2.535-6.089c-2.228-4.035-1.861-8.008,1.305-11.314a9.931,9.931,0,0,1,1-.766c.439,1.015.853,1.892,1.2,2.795,1.159,3,2.269,6.025,3.469,9.011.185.461.745.772,1.132,1.152a4.536,4.536,0,0,0,.084-1.6c-1.051-3.157-2.226-6.273-3.267-9.432a9.123,9.123,0,0,1,.922-8.15c.8-1.244,1.554-2.516,2.56-4.152.36.881.6,1.345.742,1.835,1.226,4.151,2.425,8.309,3.658,12.457.2.681.2,1.818,1.343,1.345.29-.12.379-1.359.169-1.942-.827-2.293-1.843-4.517-2.729-6.79-1.928-4.939-.97-8.412,3.147-11.817a29.147,29.147,0,0,1,14.345-6.208c7.239-1.147,14.408-.976,21.287,1.882a29.337,29.337,0,0,1,5.226,2.893c1.729,1.181,1.864,2.36.872,4.175-1.566,2.864-1.453,5.705.744,8.118a66.8,66.8,0,0,0,6.214,5.764c1.1.933,1.3,1.658.479,2.924-2.391,3.676-4.673,7.424-6.949,11.173a2.327,2.327,0,0,1-2.527,1.352c-3.423-.325-6.865-.478-10.3-.593-.593-.02-1.2.485-1.807.747a5.756,5.756,0,0,0,.962,1.33A11.377,11.377,0,0,1,1345-57.918a7.135,7.135,0,0,0,1.553,5.246,62.938,62.938,0,0,1,4.11,6.233c3.5,6.205,8.96,8.426,15.781,8.089a19.356,19.356,0,0,1,3.317.044,3.924,3.924,0,0,1,3.641,4.515,1.659,1.659,0,0,1-1.162,1.118c-8.494.015-16.991.079-25.48-.15-5.341-.144-10.225-2.426-15.253-3.985A42.7,42.7,0,0,0,1327.173-38a12.592,12.592,0,0,0-7.506.531c-8.581,3.551-16.824,2.154-24.577-2.383a148.237,148.237,0,0,1-14.136-9.394c-3.567-2.679-7.09-2.164-10.631-.685a23.663,23.663,0,0,0-6,3.849c-4.827,4.09-10.231,4.7-16.122,3.223-3.659-.92-7.322-1.832-11.006-2.64a3.8,3.8,0,0,0-2.557.225,4.2,4.2,0,0,0-1.668,2.279c-.12.425.682,1.337,1.269,1.7,3.486,2.134,7.079,3.883,11.388,3.6C1248.329-37.873,1249.147-37.172,1250.351-34.605Zm92.872-61.619-.309-.3c-.661.237-1.33.453-1.981.716-2.728,1.1-2.748,1.112-2.107,3.966.587,2.612,1.23,5.211,1.848,7.817l.5-.011C1341.828-88.1,1339.981-92.618,1343.223-96.225Z" transform="translate(-2.419 -24.824)" fill-rule="evenodd"/>
    <path id="Path_1229" data-name="Path 1229" d="M1332.172,148.541c-.473,1.979-.962,3.955-1.417,5.938q-5.178,22.557-10.343,45.116c-.579,2.53-.572,2.533-3.173,2.537-2.5,0-5-.043-7.5.02a1.852,1.852,0,0,1-2.159-1.483q-8.012-23.913-16.151-47.783c-.317-.935-.71-1.845-1.067-2.767l-.557.029v51.864l-.765.052a8.347,8.347,0,0,1-.243-1.42q-.019-26.913-.027-53.826c0-1.14.378-1.6,1.538-1.579,2.666.048,5.333.043,8,0a1.6,1.6,0,0,1,1.755,1.348c2.644,7.892,5.35,15.763,8.026,23.644q4.869,14.343,9.73,28.689a2.689,2.689,0,0,0,1.109,1.4c.214-.891.435-1.78.64-2.673q5.845-25.392,11.667-50.79c.27-1.181.775-1.673,2.025-1.636,2.664.08,5.333.068,8,.005,1.2-.028,1.661.32,1.658,1.6q-.052,26.913,0,53.826c0,1.187-.407,1.532-1.546,1.5-2.22-.072-4.449-.113-6.664.011-1.539.087-1.991-.419-1.985-1.955.054-12.276.03-24.553.03-36.829q0-6.416,0-12.832v-1.94Z" transform="translate(-46.796 -201.696)" fill-rule="evenodd"/>
    <path id="Path_1230" data-name="Path 1230" d="M1496.137,172.144c.726,5.319.587,10.7,1.7,15.937,1.185,5.568,4.213,10,10.26,11.251a20.264,20.264,0,0,0,14.162-2.4,44.422,44.422,0,0,0,5.55-4.2c.529-.413,1.007-1.374,1.68-.422.224.317-.107,1.322-.488,1.725a22.327,22.327,0,0,1-13.41,6.806,30.313,30.313,0,0,1-17.585-2.285,18.253,18.253,0,0,1-9.716-11.12,47.7,47.7,0,0,1,.033-30.925c2.962-8.738,9.609-13.186,18.588-14.239,6.923-.812,13.546.083,19.34,4.343a26.3,26.3,0,0,1,3.452,3.34c.445.475,1.122,1.1.134,1.781-.812.56-1.245.162-1.762-.5-4.481-5.723-10.58-7.885-17.608-7.651-5.944.2-9.527,3.726-11.657,8.977-1.953,4.811-2.347,9.914-2.658,15.019-.091,1.493-.014,3-.014,4.495C1495.951,172.1,1496.324,172.123,1496.137,172.144Z" transform="translate(-178.106 -199.549)" fill-rule="evenodd"/>
    <path id="Path_1231" data-name="Path 1231" d="M1249.495-31.555a12.183,12.183,0,0,1-1.906,7.452,14.763,14.763,0,0,1-18.435,5.059c-11.248-5.152-12.874-18.783-3.151-26.467,1.566-1.237,3.269-2.321,4.732-3.667,3.146-2.892,2.826-6.334-.6-8.419-.98-.6-1.543-.487-2.131.515-1.827,3.109-3.721,6.178-5.6,9.257-.28.459-.6.89-.922,1.355-2.744-2.74-3.923-8.427-1.854-11.228,2.668-3.613,7.855-5.025,11.572-2.95,6.128,3.421,6.682,9.851,1.228,14.263-1.9,1.535-3.932,2.927-5.665,4.628a11,11,0,0,0-2.285,13.281,11.578,11.578,0,0,0,12.323,5.97,13.088,13.088,0,0,0,6.91-3.768q1.84-1.807,3.722-3.574C1247.976-30.357,1248.579-30.8,1249.495-31.555Z" transform="translate(0 -63.805)" fill-rule="evenodd"/>
    <path id="Path_1232" data-name="Path 1232" d="M1511.648-148.621c1.1-2.052,1.82-4.133,3.138-5.721,3.354-4.041,5.506-3.925,8.824.092a16.61,16.61,0,0,1,1.921,2.5,21.955,21.955,0,0,1,1.141,3.245c3.189-1.769,6.572-1.383,9.96-1.243-.2,5.707-3.594,8.544-8.949,7.788-3.118-.441-6.249-.889-9.388-1.048a25.158,25.158,0,0,0-4.92.714,30.312,30.312,0,0,1-3.616.51c-3.818.119-6.161-1.829-6.907-5.56a1.824,1.824,0,0,1,.922-2.189c1.946-1.3,3.733-1.694,5.728-.136A9.706,9.706,0,0,0,1511.648-148.621Z" transform="translate(-189.474 0)" fill-rule="evenodd"/>
    <path id="Path_1233" data-name="Path 1233" d="M1516.068-103.5c3.5-4.836,21-4.942,24.782,0Z" transform="translate(-198.33 -33.437)" fill-rule="evenodd"/>
  </g>
</svg>
