<svg xmlns="http://www.w3.org/2000/svg" width="253.114" height="172.301" viewBox="0 0 253.114 172.301">
  <g id="Group_4147" data-name="Group 4147" transform="translate(-372 -1442.705)">
    <path id="Path_674" data-name="Path 674" d="M149.766,455.906c-.736.469-1.241.8-1.755,1.117-7.108,4.41-14.254,8.759-21.316,13.243a14.6,14.6,0,0,0-.168,24.823c5.189,3.236,10.624,3.4,15.929.143,10.335-6.345,20.612-12.782,30.95-19.123,5.319-3.263,11.442-.548,12.484,5.538a7.262,7.262,0,0,1-3.286,7.595c-3.058,2.088-6.236,4-9.382,5.96-7.294,4.536-14.613,9.033-21.9,13.581A30.948,30.948,0,0,1,112.86,504.8c-16.046-15.428-10.918-41.818,9.895-50.509a29.387,29.387,0,0,1,25.863.915C148.915,455.363,149.191,455.555,149.766,455.906ZM206.7,494.337a30.677,30.677,0,0,0-9-35.207c-10.322-8.506-25.872-9.986-37.275-1.9-1.326.94-2.769,1.713-4.154,2.568-8.693,5.369-17.414,10.695-26.066,16.13a8.052,8.052,0,0,0,8.444,13.713c2.381-1.373,4.711-2.84,7.049-4.287,8.257-5.113,16.459-10.318,24.778-15.33a14.466,14.466,0,0,1,19.906,4.841,14.7,14.7,0,0,1-4.39,20.321c-4.392,2.82-8.893,5.47-13.338,8.209-3.286,2.024-6.558,4.068-10.005,6.209C178.293,518.928,199.763,511.352,206.7,494.337Zm-38.059,52.389c-.356-.527-.73-1.042-1.064-1.581-4.1-6.641-8.154-13.311-12.342-19.9a4,4,0,0,0-2.634-1.664c-2.621-.226-5.274-.058-7.914-.09-1.213-.015-1.7.5-1.7,1.718q.032,18.875,0,37.75c0,1.159.435,1.626,1.582,1.605,2.077-.038,4.156,0,6.235-.009,2.221-.008,2.3-.083,2.3-2.244q.008-10.28.006-20.56c0-.563.058-1.125.115-2.164.574.8.854,1.136,1.08,1.507,4.448,7.284,8.909,14.56,13.312,21.871a2.8,2.8,0,0,0,2.7,1.6c2.359-.05,4.72-.056,7.078,0,1.267.029,1.857-.426,1.855-1.745q-.026-18.707,0-37.413c0-1.359-.645-1.923-1.972-1.9-1.965.032-3.933,0-5.9.006-2.152.006-2.329.173-2.33,2.282q-.008,9.521,0,19.044V546.6Zm35.1-2.759a21.165,21.165,0,1,0,21.187-21.024A21.152,21.152,0,0,0,203.747,543.967Zm21.222,11.185a10.747,10.747,0,0,1-10.752-11.177c.053-6.227,4.782-11.135,10.708-11.11,6.008.025,10.6,4.848,10.61,11.151C235.547,550.359,231.025,555.126,224.968,555.152Zm57.733,7.363c-2.11-3.963-4.159-7.963-6.417-11.841-.888-1.523-.747-2.28.647-3.388A12.721,12.721,0,0,0,281.425,533c-1.743-5.482-6.288-9.261-11.875-9.428-6.117-.183-12.242-.036-18.363-.062-1.228-.006-1.691.533-1.689,1.733q.027,18.87,0,37.74c0,1.169.473,1.594,1.611,1.572,2.359-.044,4.719-.068,7.076.01,1.436.048,1.831-.562,1.8-1.909-.068-3.368-.032-6.739-.009-10.108a2.392,2.392,0,0,1,.279-1.424c.675-.783,4.446-.082,4.946.865a59.545,59.545,0,0,1,3.75,7.337c1.537,4.269,4.189,6.052,8.721,5.269a36.047,36.047,0,0,1,5.782-.05A18.47,18.47,0,0,0,282.7,562.515Zm-22.748-29.289c-.053-1.046.407-1.393,1.392-1.368,1.629.039,3.261-.039,4.888.025a5.2,5.2,0,0,1,5.023,5.107,5.038,5.038,0,0,1-4.741,5.166,37.238,37.238,0,0,1-5.387,0,1.691,1.691,0,0,1-1.108-1.182,36.686,36.686,0,0,1-.053-4.04C259.968,535.7,260.015,534.459,259.953,533.227ZM139.387,562.378q-4.126-10.678-8.276-21.346c-2.039-5.229-4.131-10.436-6.145-15.674a2.512,2.512,0,0,0-2.783-1.873,42.72,42.72,0,0,1-4.884,0,2.708,2.708,0,0,0-2.992,2.084c-4.762,12.356-9.583,24.691-14.374,37.037-.213.548-.312,1.139-.554,2.045,2.611,0,4.953,0,7.295,0,3.047,0,3.046-.007,4.033-2.81a23.888,23.888,0,0,0,.837-2.381,1.69,1.69,0,0,1,2.009-1.482c2.917.086,5.84.01,8.76.029,1.623.01,3.668-.506,4.752.279,1.149.833,1.385,2.927,2.018,4.47a3.6,3.6,0,0,0,.384.926c.267.329.642.8.979.8,3.117.061,6.236.036,9.6.036C139.775,563.622,139.622,562.984,139.387,562.378Zm-24.151-13.331,4.152-12.159.431-.024c1.441,4.006,2.882,8.012,4.383,12.183Zm-24.289.046c-.5-1.4-1.026-2.8-1.51-4.21q-3.329-9.715-6.637-19.439c-.36-1.058-.773-1.989-2.146-1.981-2.753.016-5.505-.016-8.258-.032-1-.005-1.321.409-.931,1.376.61,1.509,1.176,3.036,1.759,4.556,4.26,11.11,8.537,22.214,12.755,33.34a2.474,2.474,0,0,0,2.725,1.923c1.737-.086,3.483-.062,5.223-.009a2.1,2.1,0,0,0,2.258-1.573q7.224-18.961,14.511-37.9c.447-1.162.24-1.685-1.082-1.67q-3.96.047-7.92-.008a1.992,1.992,0,0,0-2.149,1.5c-.21.64-.442,1.273-.658,1.911q-3.753,11.074-7.5,22.15ZM54.561,525.668c0-2.014-.182-2.181-2.24-2.19-1.965-.008-3.93,0-5.9,0-2.413,0-2.476.062-2.476,2.446,0,11.961-.017,23.922.018,35.883,0,1.683-.221,3.152-1.884,3.978a3.624,3.624,0,0,1-4.444-.92,1.607,1.607,0,0,0-2.6.076c-1.08,1.063-2.207,2.08-3.333,3.094-1.738,1.564-1.8,2.284-.246,4.021a7.874,7.874,0,0,0,1.233,1.143c4.413,3.192,9.22,3.892,14.146,1.584a12.631,12.631,0,0,0,7.718-12.051c.052-6.064.012-12.13.012-18.193Q54.563,535.1,54.561,525.668Zm145.5.029c0-2.035-.157-2.173-2.226-2.182q-3.032-.014-6.063,0c-2.092.008-2.212.12-2.213,2.173q-.009,10.947,0,21.893c0,4.94.014,9.88-.007,14.82-.009,2.234-1.243,3.813-3.2,3.752a5.45,5.45,0,0,1-3.023-1.165c-1.144-.92-1.914-.841-2.868.148-.934.968-1.954,1.855-2.957,2.754-2.117,1.9-2.132,2.485-.057,4.52a7.5,7.5,0,0,0,.754.671c4.387,3.264,9.2,3.956,14.123,1.674a12.442,12.442,0,0,0,7.729-11.842c.044-6.063.01-12.126.011-18.189Q200.061,535.213,200.057,525.7Zm-131.274-.258c.012-1.449-.489-2.064-1.96-1.979-1.343.077-2.694,0-4.04.018-5.292.055-4.618-.7-4.629,4.662-.023,11.451.018,22.9-.035,34.354-.007,1.622.537,2.21,2.144,2.137,2.128-.1,4.268-.1,6.4,0,1.616.074,2.151-.528,2.132-2.144-.073-6.117-.029-12.237-.03-18.355C68.761,537.9,68.732,531.67,68.783,525.439Z" transform="translate(341.659 990.967)" fill="#fff" fill-rule="evenodd"/>
    <g id="Group_4151" data-name="Group 4151" transform="translate(165.051 1304.057)">
      <path id="Path_1326" data-name="Path 1326" d="M362.629,296.806H357.24l-.6,2.92h5.388a1.845,1.845,0,0,0,1.685-1.459A1.125,1.125,0,0,0,362.629,296.806Z" transform="translate(-43.47 -12.339)" fill="#fff"/>
      <path id="Path_1327" data-name="Path 1327" d="M359.942,309.889h-5.388l-.606,2.92h5.389a1.844,1.844,0,0,0,1.685-1.459A1.125,1.125,0,0,0,359.942,309.889Z" transform="translate(-42.298 -18.041)" fill="#fff"/>
      <path id="Path_1328" data-name="Path 1328" d="M412.082,270.544a6.592,6.592,0,0,0-4.811-2.044H351a7.271,7.271,0,0,0-7.148,6.9l-.036.575H328.738l.025-.4a6.771,6.771,0,0,0-1.86-5.035,6.594,6.594,0,0,0-4.812-2.044H265.823a7.271,7.271,0,0,0-7.148,6.9l-1.757,28.471a6.769,6.769,0,0,0,1.86,5.036,6.589,6.589,0,0,0,4.811,2.044h56.269a7.273,7.273,0,0,0,7.148-6.9l.006-.1H342.1a6.763,6.763,0,0,0,1.86,4.96,6.589,6.589,0,0,0,4.811,2.044h56.269a7.273,7.273,0,0,0,7.148-6.9l1.755-28.471A6.769,6.769,0,0,0,412.082,270.544Zm-92.224,37.021H263.589a3.236,3.236,0,0,1-2.364-1,3.4,3.4,0,0,1-.927-2.516l1.757-28.471a3.859,3.859,0,0,1,3.768-3.694h56.269a3.236,3.236,0,0,1,2.365,1,3.4,3.4,0,0,1,.926,2.516l-.036.575H271.182a5.563,5.563,0,0,0-5.459,5.31l-.782,17.35a4.991,4.991,0,0,0,4.981,5.312h53.7A3.857,3.857,0,0,1,319.858,307.565Zm-42.836-13.274q2.881,0,3.858-4.566l1.039-4.917H270.358l1.162-5.707h11.605l.007-.03h5.762l-2.251,10.654q-2.266,10.654-10.908,10.653-8,0-6.66-9.116h5.82Q274.675,294.29,277.023,294.291Zm11.061-4.566,2.251-10.654H296.1l-2.25,10.654q-.977,4.565,1.9,4.566t3.858-4.566l2.25-10.654h5.762l-2.251,10.654q-2.264,10.654-10.908,10.653T288.084,289.725Zm26.545,10.653H304.545l4.516-21.307h10.083q8.643,0,7.186,6.863-.794,3.791-3.675,3.79,2.88,0,2.049,3.9Q323.272,300.378,314.629,300.378Zm15.846,0h-5.762l4.516-21.307h5.762Zm7.865,0,3.228-15.218h-6.425l1.288-6.088h18.726l-1.288,6.088h-6.54L344.1,300.378ZM356.6,279.071h5.762l-4.516,21.307h-5.762Zm52.209,24.8a3.86,3.86,0,0,1-3.769,3.7H348.769a3.236,3.236,0,0,1-2.364-1,3.4,3.4,0,0,1-.927-2.516l.007-.1h53.3a5.565,5.565,0,0,0,5.459-5.312l.781-17.35a4.989,4.989,0,0,0-4.98-5.31H347.209l.025-.4A3.859,3.859,0,0,1,351,271.885h56.269a3.234,3.234,0,0,1,2.364,1,3.4,3.4,0,0,1,.927,2.516ZM396.759,286.68l-1.288,6.088h-8.643l-.325,1.523h11.523l-1.287,6.087H379.452l4.516-21.307h17.287l-1.288,6.088H388.442l-.325,1.521Zm-15.52-1.521H374.7l-3.227,15.218H365.71l3.227-15.218h-6.425l1.288-6.088h18.728Z" fill="#fff"/>
    </g>
  </g>
</svg>
