<svg xmlns="http://www.w3.org/2000/svg" xmlns:xlink="http://www.w3.org/1999/xlink" width="253.114" height="157.899" viewBox="0 0 253.114 157.899">
  <defs>
    <linearGradient id="linear-gradient" x1="1" y1="0.575" x2="-0.036" y2="0.564" gradientUnits="objectBoundingBox">
      <stop offset="0" stop-color="#2e3192"/>
      <stop offset="1" stop-color="#ed1c24"/>
    </linearGradient>
  </defs>
  <g id="Group_4165" data-name="Group 4165" transform="translate(-371.793 -1442.705)">
    <g id="Group_4164" data-name="Group 4164" transform="translate(-695.522 1504.893)">
      <path id="Path_1370" data-name="Path 1370" d="M1132.568,70.7l-2.77,12.433q-2.791,12.434-13.429,12.433-9.843,0-8.2-10.639h7.163q-.267,3.532,2.622,3.535,3.545,0,4.749-5.329l1.278-5.738h-9.757l1.43-6.661h9.812l.008-.035Zm23.055,0h-7.094l-2.77,12.433q-1.2,5.327-4.75,5.329t-2.344-5.329l2.77-12.433h-7.093l-2.771,12.433q-2.788,12.434,7.852,12.433t13.427-12.433Zm26.6,0-5.558,24.866h7.093l5.559-24.866Zm-3.568,8.01q-.975,4.423-4.523,4.423,3.546,0,2.522,4.547-1.764,7.885-12.4,7.886h-12.413L1157.4,70.7h12.413Q1180.45,70.7,1178.654,78.708Zm-10.692,6.9h-6.635l-.746,3.408h6.635a2.236,2.236,0,0,0,2.074-1.7A1.327,1.327,0,0,0,1167.962,85.608ZM1169.827,77h-6.634l-.744,3.408h6.633a2.24,2.24,0,0,0,2.075-1.7A1.329,1.329,0,0,0,1169.827,77Z" transform="translate(-0.252 -0.254)" fill="#fe252e"/>
      <path id="Path_1371" data-name="Path 1371" d="M1286.633,77.809l1.53-7.112h-37.179q-8.852,0-10.557,7.93-1.737,8.073,7.115,8.072h5.312q1.771,0,1.594.818-.205.96-1.977.96H1236.9l-1.53,7.112h15.571q8.851,0,10.589-8.072,1.706-7.93-7.147-7.931h-5.311q-1.77,0-1.563-.96.175-.818,1.945-.817h15.934l-3.825,17.78h21.245l1.53-7.113h-14.164l.382-1.778h10.624l1.529-7.112h-10.622l.382-1.778Z" transform="translate(-51.829 -0.253)" fill="#33389c"/>
      <path id="Path_1372" data-name="Path 1372" d="M1325.123,92.035l-2,3.556h-7.082L1330.244,70.7h7.082l3.5,24.893h-7.082l-.492-3.556Zm7.992-7.112-.86-7.112-3.867,7.112Z" transform="translate(-84.478 -0.255)" fill="#33389c"/>
      <path id="Path_1373" data-name="Path 1373" d="M1366.006,70.7h7.081l-3.825,17.78h14.163l-1.53,7.112H1360.65Z" transform="translate(-102.535 -0.255)" fill="#33389c"/>
      <path id="Path_1374" data-name="Path 1374" d="M1243.282,85.041h5.775l-1.051-8.689Zm1.255-.746,3.01-5.535.669,5.535Zm-76.786.7h-6.94l-.911,4.158h7.1a2.6,2.6,0,0,0,2.44-2,1.789,1.789,0,0,0-.321-1.536A1.714,1.714,0,0,0,1167.751,85Zm.964,2A1.877,1.877,0,0,1,1167,88.41h-6.176l.584-2.665h6.338a.986.986,0,0,1,.791.345A1.062,1.062,0,0,1,1168.715,87Zm-43.479-16.927-.3.035h-9.825l-1.592,7.416h9.761l-1.178,5.288c-.767,3.394-2.2,5.044-4.388,5.044a2.175,2.175,0,0,1-1.687-.594,3.337,3.337,0,0,1-.564-2.543l.031-.4H1107.6l-.049.317c-.588,3.8-.082,6.672,1.5,8.522,1.456,1.7,3.835,2.56,7.069,2.56,7.263,0,11.906-4.286,13.8-12.739l2.873-12.9ZM1129.2,82.81c-1.835,8.179-6.111,12.155-13.074,12.155-3.007,0-5.195-.773-6.5-2.3-1.394-1.627-1.858-4.185-1.38-7.605h6.453a3.723,3.723,0,0,0,.782,2.705,2.91,2.91,0,0,0,2.234.833c2.551,0,4.273-1.892,5.117-5.626l1.379-6.2h-9.767l1.271-5.922h9.517l.3-.035h6.338Zm26.672-12.739h-7.863l-2.837,12.739c-.766,3.394-2.2,5.044-4.389,5.044a2.111,2.111,0,0,1-1.767-.687c-.6-.752-.673-2.162-.213-4.193l2.872-12.9h-7.862l-2.838,12.739c-1.036,4.617-.691,8.043,1.021,10.185,1.443,1.8,3.866,2.717,7.2,2.717,7.264,0,11.907-4.286,13.8-12.739Zm-16.677,24.894c-3.1,0-5.322-.82-6.616-2.438-1.565-1.955-1.859-5.17-.877-9.555l2.709-12.156h6.333l-2.67,11.992c-.518,2.294-.4,3.872.359,4.823a2.837,2.837,0,0,0,2.35.967c2.553,0,4.275-1.892,5.117-5.626l2.708-12.156h6.333l-2.673,11.993C1150.433,90.989,1146.156,94.965,1139.193,94.965Zm30.424-18.589h-6.94l-.907,4.159h7.1a2.6,2.6,0,0,0,2.44-2,1.789,1.789,0,0,0-.321-1.535A1.721,1.721,0,0,0,1169.617,76.376Zm.966,2a1.878,1.878,0,0,1-1.711,1.412H1162.7l.582-2.665h6.338a.989.989,0,0,1,.793.346A1.06,1.06,0,0,1,1170.583,78.375Zm96.605,9.477,3.825-17.78h-7.844l-5.516,25.638h22.009l1.69-7.858Zm11.87,7.112h-20.482l5.195-24.146h6.318l-3.825,17.78h14.164Zm-33.51-24.893-14.632,25.638h7.941l2-3.556h7.583l.492,3.556h7.836l-3.6-25.639Zm4.039,24.893-.492-3.556h-8.669l-2,3.556H1232.2l13.782-24.146h6.541l3.391,24.147Zm-30.781-7.113.222-1.032h10.624l1.69-7.858h-10.623l.222-1.032h14.164l1.691-7.858h-37.641c-6.073,0-9.747,2.767-10.922,8.224-.581,2.7-.29,4.795.864,6.224,1.232,1.526,3.458,2.3,6.615,2.3h5.312c.974,0,1.184.2,1.217.239.011.014.032.039.013.128-.1.442-.638.666-1.613.666h-15.03l3.973-17.779h-7.862l-5.729,25.641h7.862v0h15.256c6.073,0,9.759-2.815,10.953-8.367.566-2.631.278-4.678-.857-6.083-1.232-1.525-3.47-2.3-6.655-2.3h-5.311c-.867,0-1.106-.181-1.169-.259-.017-.022-.065-.082-.029-.251.1-.455,1.031-.523,1.58-.523H1213.1l-3.824,17.78h22.007l1.691-7.858Zm11.871,7.113H1210.2l3.665-17.035h.025l.16-.745h-16.422c-1.374,0-2.151.374-2.309,1.112a1,1,0,0,0,.179.876,2.179,2.179,0,0,0,1.749.536h5.311c2.948,0,4.991.68,6.075,2.021.986,1.221,1.224,3.058.708,5.458-1.126,5.234-4.47,7.777-10.224,7.777v0h-12.936v0h-9.252l5.4-24.148h6.334L1184.68,88.6h15.962c1.375,0,2.163-.423,2.341-1.255a.863.863,0,0,0-.161-.753c-.285-.352-.855-.516-1.8-.516h-5.312c-2.92,0-4.951-.681-6.035-2.023-1.006-1.245-1.246-3.129-.715-5.6,1.1-5.137,4.438-7.635,10.193-7.635h36.717l-1.37,6.366H1220.34l-.544,2.524h10.623l-1.368,6.366h-10.623l-.543,2.524h14.163Zm-54.25-11.455a2.356,2.356,0,0,0-.674-.574c1.525-.615,2.551-2.083,3.06-4.389.545-2.434.253-4.378-.868-5.779-1.432-1.789-4.24-2.7-8.348-2.7h-12.72l-5.73,25.641h12.887c7.264,0,11.562-2.754,12.776-8.186C1177.23,85.668,1177.1,84.354,1176.428,83.508Zm-.344,3.854c-1.144,5.116-5.085,7.6-12.049,7.6H1152.08l5.4-24.148H1169.6c3.87,0,6.483.813,7.765,2.416.973,1.215,1.216,2.947.721,5.15-.613,2.783-1.974,4.135-4.161,4.135v.747a2.3,2.3,0,0,1,1.922.71C1176.364,84.623,1176.444,85.763,1176.084,87.362Z" fill="#fff"/>
    </g>
    <path id="Path_674" data-name="Path 674" d="M149.766,455.906c-.736.469-1.241.8-1.755,1.117-7.108,4.41-14.254,8.759-21.316,13.243a14.6,14.6,0,0,0-.168,24.823c5.189,3.236,10.624,3.4,15.929.143,10.335-6.345,20.612-12.782,30.95-19.123,5.319-3.263,11.442-.548,12.484,5.538a7.262,7.262,0,0,1-3.286,7.595c-3.058,2.088-6.236,4-9.382,5.96-7.294,4.536-14.613,9.033-21.9,13.581A30.948,30.948,0,0,1,112.86,504.8c-16.046-15.428-10.918-41.818,9.895-50.509a29.387,29.387,0,0,1,25.863.915C148.915,455.363,149.191,455.555,149.766,455.906ZM206.7,494.337a30.677,30.677,0,0,0-9-35.207c-10.322-8.506-25.872-9.986-37.275-1.9-1.326.94-2.769,1.713-4.154,2.568-8.693,5.369-17.414,10.695-26.066,16.13a8.052,8.052,0,0,0,8.444,13.713c2.381-1.373,4.711-2.84,7.049-4.287,8.257-5.113,16.459-10.318,24.778-15.33a14.466,14.466,0,0,1,19.906,4.841,14.7,14.7,0,0,1-4.39,20.321c-4.392,2.82-8.893,5.47-13.338,8.209-3.286,2.024-6.558,4.068-10.005,6.209C178.293,518.928,199.763,511.352,206.7,494.337Zm-38.059,52.389c-.356-.527-.73-1.042-1.064-1.581-4.1-6.641-8.154-13.311-12.342-19.9a4,4,0,0,0-2.634-1.664c-2.621-.226-5.274-.058-7.914-.09-1.213-.015-1.7.5-1.7,1.718q.032,18.875,0,37.75c0,1.159.435,1.626,1.582,1.605,2.077-.038,4.156,0,6.235-.009,2.221-.008,2.3-.083,2.3-2.244q.008-10.28.006-20.56c0-.563.058-1.125.115-2.164.574.8.854,1.136,1.08,1.507,4.448,7.284,8.909,14.56,13.312,21.871a2.8,2.8,0,0,0,2.7,1.6c2.359-.05,4.72-.056,7.078,0,1.267.029,1.857-.426,1.855-1.745q-.026-18.707,0-37.413c0-1.359-.645-1.923-1.972-1.9-1.965.032-3.933,0-5.9.006-2.152.006-2.329.173-2.33,2.282q-.008,9.521,0,19.044V546.6Zm35.1-2.759a21.165,21.165,0,1,0,21.187-21.024A21.152,21.152,0,0,0,203.747,543.967Zm21.222,11.185a10.747,10.747,0,0,1-10.752-11.177c.053-6.227,4.782-11.135,10.708-11.11,6.008.025,10.6,4.848,10.61,11.151C235.547,550.359,231.025,555.126,224.968,555.152Zm57.733,7.363c-2.11-3.963-4.159-7.963-6.417-11.841-.888-1.523-.747-2.28.647-3.388A12.721,12.721,0,0,0,281.425,533c-1.743-5.482-6.288-9.261-11.875-9.428-6.117-.183-12.242-.036-18.363-.062-1.228-.006-1.691.533-1.689,1.733q.027,18.87,0,37.74c0,1.169.473,1.594,1.611,1.572,2.359-.044,4.719-.068,7.076.01,1.436.048,1.831-.562,1.8-1.909-.068-3.368-.032-6.739-.009-10.108a2.392,2.392,0,0,1,.279-1.424c.675-.783,4.446-.082,4.946.865a59.545,59.545,0,0,1,3.75,7.337c1.537,4.269,4.189,6.052,8.721,5.269a36.047,36.047,0,0,1,5.782-.05A18.47,18.47,0,0,0,282.7,562.515Zm-22.748-29.289c-.053-1.046.407-1.393,1.392-1.368,1.629.039,3.261-.039,4.888.025a5.2,5.2,0,0,1,5.023,5.107,5.038,5.038,0,0,1-4.741,5.166,37.238,37.238,0,0,1-5.387,0,1.691,1.691,0,0,1-1.108-1.182,36.686,36.686,0,0,1-.053-4.04C259.968,535.7,260.015,534.459,259.953,533.227ZM139.387,562.378q-4.126-10.678-8.276-21.346c-2.039-5.229-4.131-10.436-6.145-15.674a2.512,2.512,0,0,0-2.783-1.873,42.72,42.72,0,0,1-4.884,0,2.708,2.708,0,0,0-2.992,2.084c-4.762,12.356-9.583,24.691-14.374,37.037-.213.548-.312,1.139-.554,2.045,2.611,0,4.953,0,7.295,0,3.047,0,3.046-.007,4.033-2.81a23.888,23.888,0,0,0,.837-2.381,1.69,1.69,0,0,1,2.009-1.482c2.917.086,5.84.01,8.76.029,1.623.01,3.668-.506,4.752.279,1.149.833,1.385,2.927,2.018,4.47a3.6,3.6,0,0,0,.384.926c.267.329.642.8.979.8,3.117.061,6.236.036,9.6.036C139.775,563.622,139.622,562.984,139.387,562.378Zm-24.151-13.331,4.152-12.159.431-.024c1.441,4.006,2.882,8.012,4.383,12.183Zm-24.289.046c-.5-1.4-1.026-2.8-1.51-4.21q-3.329-9.715-6.637-19.439c-.36-1.058-.773-1.989-2.146-1.981-2.753.016-5.505-.016-8.258-.032-1-.005-1.321.409-.931,1.376.61,1.509,1.176,3.036,1.759,4.556,4.26,11.11,8.537,22.214,12.755,33.34a2.474,2.474,0,0,0,2.725,1.923c1.737-.086,3.483-.062,5.223-.009a2.1,2.1,0,0,0,2.258-1.573q7.224-18.961,14.511-37.9c.447-1.162.24-1.685-1.082-1.67q-3.96.047-7.92-.008a1.992,1.992,0,0,0-2.149,1.5c-.21.64-.442,1.273-.658,1.911q-3.753,11.074-7.5,22.15ZM54.561,525.668c0-2.014-.182-2.181-2.24-2.19-1.965-.008-3.93,0-5.9,0-2.413,0-2.476.062-2.476,2.446,0,11.961-.017,23.922.018,35.883,0,1.683-.221,3.152-1.884,3.978a3.624,3.624,0,0,1-4.444-.92,1.607,1.607,0,0,0-2.6.076c-1.08,1.063-2.207,2.08-3.333,3.094-1.738,1.564-1.8,2.284-.246,4.021a7.874,7.874,0,0,0,1.233,1.143c4.413,3.192,9.22,3.892,14.146,1.584a12.631,12.631,0,0,0,7.718-12.051c.052-6.064.012-12.13.012-18.193Q54.563,535.1,54.561,525.668Zm145.5.029c0-2.035-.157-2.173-2.226-2.182q-3.032-.014-6.063,0c-2.092.008-2.212.12-2.213,2.173q-.009,10.947,0,21.893c0,4.94.014,9.88-.007,14.82-.009,2.234-1.243,3.813-3.2,3.752a5.45,5.45,0,0,1-3.023-1.165c-1.144-.92-1.914-.841-2.868.148-.934.968-1.954,1.855-2.957,2.754-2.117,1.9-2.132,2.485-.057,4.52a7.5,7.5,0,0,0,.754.671c4.387,3.264,9.2,3.956,14.123,1.674a12.442,12.442,0,0,0,7.729-11.842c.044-6.063.01-12.126.011-18.189Q200.061,535.213,200.057,525.7Zm-131.274-.258c.012-1.449-.489-2.064-1.96-1.979-1.343.077-2.694,0-4.04.018-5.292.055-4.618-.7-4.629,4.662-.023,11.451.018,22.9-.035,34.354-.007,1.622.537,2.21,2.144,2.137,2.128-.1,4.268-.1,6.4,0,1.616.074,2.151-.528,2.132-2.144-.073-6.117-.029-12.237-.03-18.355C68.761,537.9,68.732,531.67,68.783,525.439Z" transform="translate(341.452 990.967)" fill-rule="evenodd" fill="url(#linear-gradient)"/>
  </g>
</svg>
