<svg xmlns="http://www.w3.org/2000/svg" width="38.047" height="41.34" viewBox="0 0 38.047 41.34">
  <g id="Group_4103" data-name="Group 4103" transform="translate(-428.928 -2864.104)">
    <path id="Subtraction_12" data-name="Subtraction 12" d="M16863.631,3811.515a9.7,9.7,0,1,1,6.863-2.843A9.716,9.716,0,0,1,16863.631,3811.515Zm-4.158-10.485a.331.331,0,0,0-.221.123c-.176.17-.352.348-.523.519l-.016.016-.02.02c-.211.2-.217.278-.043.517l.168.232.041.055c.959,1.328,1.953,2.7,2.828,4.125a.273.273,0,0,0,.236.148.288.288,0,0,0,.236-.157c.762-1.315,1.609-2.643,2.516-3.947a29.7,29.7,0,0,1,4.129-4.95.246.246,0,0,0,.08-.3.255.255,0,0,0-.266-.161l-.115,0h-.033c-.08,0-.158.005-.234.005a2.2,2.2,0,0,1-.262-.014,1.234,1.234,0,0,0-.141-.008,1.387,1.387,0,0,0-.846.317,25.249,25.249,0,0,0-4.324,4.091c-.158.186-.316.381-.469.568l-.109.132c-.059.074-.117.148-.178.222l-.043.052-.076-.052c-.031-.022-.068-.048-.107-.071l-1-.7-.006,0q-.5-.348-.994-.7A.385.385,0,0,0,16859.473,3801.031Z" transform="translate(-16410.379 -928)"/>
    <path id="Path_1191" data-name="Path 1191" d="M428.931,2932.087c0-1.543-.008-3.088,0-4.633.01-1.143.526-1.685,1.6-1.7.87-.012,1.74-.014,2.609,0a1.477,1.477,0,0,1,1.576,1.662q.021,4.671,0,9.343a1.54,1.54,0,0,1-1.617,1.726q-1.266.023-2.534,0c-1.093-.018-1.629-.6-1.638-1.767C428.925,2935.176,428.931,2933.631,428.931,2932.087Z" transform="translate(0 -33.054)"/>
    <path id="Path_1192" data-name="Path 1192" d="M446.388,2931.975c0-.6-.012-7.46.022-11.082a1.47,1.47,0,0,1,.508-.957c1.8-1.535,3.617-3.059,5.484-4.513a2.753,2.753,0,0,1,1.628-.531c3.483.07,6.963.219,10.444.348a1.208,1.208,0,0,1,.6.128c.3.2.682.433.768.726.057.194-.292.638-.557.765a18.548,18.548,0,0,1-2.236.831c-1.475.47-2.961.911-4.441,1.366,0,.11-.006.221-.009.331,2.183.711,4.362,1.441,6.554,2.125a2.133,2.133,0,0,0,2.223-.826c1.68-1.721,3.334-3.465,5.052-5.145a3.958,3.958,0,0,1,1.745-1.055,1.927,1.927,0,0,1,1.592.455c.452.35-.189.926-.453,1.251-2.422,2.969-4.891,5.9-7.32,8.859a2.8,2.8,0,0,1-2.056,1.041c-4.535.451-9.069.935-13.593,1.478a3.78,3.78,0,0,0-1.742.851C449.216,2929.519,446.388,2932.575,446.388,2931.975Z" transform="translate(-8.95 -27.268)" fill-rule="evenodd"/>
  </g>
</svg>
