<svg xmlns="http://www.w3.org/2000/svg" xmlns:xlink="http://www.w3.org/1999/xlink" width="253.114" height="228.058" viewBox="0 0 253.114 228.058">
  <defs>
    <linearGradient id="linear-gradient" x1="1" y1="0.575" x2="-0.036" y2="0.564" gradientUnits="objectBoundingBox">
      <stop offset="0" stop-color="#2e3192"/>
      <stop offset="1" stop-color="#ed1c24"/>
    </linearGradient>
  </defs>
  <g id="Group_4150" data-name="Group 4150" transform="translate(-371.558 -1442.705)">
    <path id="Path_674" data-name="Path 674" d="M149.766,455.906c-.736.469-1.241.8-1.755,1.117-7.108,4.41-14.254,8.759-21.316,13.243a14.6,14.6,0,0,0-.168,24.823c5.189,3.236,10.624,3.4,15.929.143,10.335-6.345,20.612-12.782,30.95-19.123,5.319-3.263,11.442-.548,12.484,5.538a7.262,7.262,0,0,1-3.286,7.595c-3.058,2.088-6.236,4-9.382,5.96-7.294,4.536-14.613,9.033-21.9,13.581A30.948,30.948,0,0,1,112.86,504.8c-16.046-15.428-10.918-41.818,9.895-50.509a29.387,29.387,0,0,1,25.863.915C148.915,455.363,149.191,455.555,149.766,455.906ZM206.7,494.337a30.677,30.677,0,0,0-9-35.207c-10.322-8.506-25.872-9.986-37.275-1.9-1.326.94-2.769,1.713-4.154,2.568-8.693,5.369-17.414,10.695-26.066,16.13a8.052,8.052,0,0,0,8.444,13.713c2.381-1.373,4.711-2.84,7.049-4.287,8.257-5.113,16.459-10.318,24.778-15.33a14.466,14.466,0,0,1,19.906,4.841,14.7,14.7,0,0,1-4.39,20.321c-4.392,2.82-8.893,5.47-13.338,8.209-3.286,2.024-6.558,4.068-10.005,6.209C178.293,518.928,199.763,511.352,206.7,494.337Zm-38.059,52.389c-.356-.527-.73-1.042-1.064-1.581-4.1-6.641-8.154-13.311-12.342-19.9a4,4,0,0,0-2.634-1.664c-2.621-.226-5.274-.058-7.914-.09-1.213-.015-1.7.5-1.7,1.718q.032,18.875,0,37.75c0,1.159.435,1.626,1.582,1.605,2.077-.038,4.156,0,6.235-.009,2.221-.008,2.3-.083,2.3-2.244q.008-10.28.006-20.56c0-.563.058-1.125.115-2.164.574.8.854,1.136,1.08,1.507,4.448,7.284,8.909,14.56,13.312,21.871a2.8,2.8,0,0,0,2.7,1.6c2.359-.05,4.72-.056,7.078,0,1.267.029,1.857-.426,1.855-1.745q-.026-18.707,0-37.413c0-1.359-.645-1.923-1.972-1.9-1.965.032-3.933,0-5.9.006-2.152.006-2.329.173-2.33,2.282q-.008,9.521,0,19.044V546.6Zm35.1-2.759a21.165,21.165,0,1,0,21.187-21.024A21.152,21.152,0,0,0,203.747,543.967Zm21.222,11.185a10.747,10.747,0,0,1-10.752-11.177c.053-6.227,4.782-11.135,10.708-11.11,6.008.025,10.6,4.848,10.61,11.151C235.547,550.359,231.025,555.126,224.968,555.152Zm57.733,7.363c-2.11-3.963-4.159-7.963-6.417-11.841-.888-1.523-.747-2.28.647-3.388A12.721,12.721,0,0,0,281.425,533c-1.743-5.482-6.288-9.261-11.875-9.428-6.117-.183-12.242-.036-18.363-.062-1.228-.006-1.691.533-1.689,1.733q.027,18.87,0,37.74c0,1.169.473,1.594,1.611,1.572,2.359-.044,4.719-.068,7.076.01,1.436.048,1.831-.562,1.8-1.909-.068-3.368-.032-6.739-.009-10.108a2.392,2.392,0,0,1,.279-1.424c.675-.783,4.446-.082,4.946.865a59.545,59.545,0,0,1,3.75,7.337c1.537,4.269,4.189,6.052,8.721,5.269a36.047,36.047,0,0,1,5.782-.05A18.47,18.47,0,0,0,282.7,562.515Zm-22.748-29.289c-.053-1.046.407-1.393,1.392-1.368,1.629.039,3.261-.039,4.888.025a5.2,5.2,0,0,1,5.023,5.107,5.038,5.038,0,0,1-4.741,5.166,37.238,37.238,0,0,1-5.387,0,1.691,1.691,0,0,1-1.108-1.182,36.686,36.686,0,0,1-.053-4.04C259.968,535.7,260.015,534.459,259.953,533.227ZM139.387,562.378q-4.126-10.678-8.276-21.346c-2.039-5.229-4.131-10.436-6.145-15.674a2.512,2.512,0,0,0-2.783-1.873,42.72,42.72,0,0,1-4.884,0,2.708,2.708,0,0,0-2.992,2.084c-4.762,12.356-9.583,24.691-14.374,37.037-.213.548-.312,1.139-.554,2.045,2.611,0,4.953,0,7.295,0,3.047,0,3.046-.007,4.033-2.81a23.888,23.888,0,0,0,.837-2.381,1.69,1.69,0,0,1,2.009-1.482c2.917.086,5.84.01,8.76.029,1.623.01,3.668-.506,4.752.279,1.149.833,1.385,2.927,2.018,4.47a3.6,3.6,0,0,0,.384.926c.267.329.642.8.979.8,3.117.061,6.236.036,9.6.036C139.775,563.622,139.622,562.984,139.387,562.378Zm-24.151-13.331,4.152-12.159.431-.024c1.441,4.006,2.882,8.012,4.383,12.183Zm-24.289.046c-.5-1.4-1.026-2.8-1.51-4.21q-3.329-9.715-6.637-19.439c-.36-1.058-.773-1.989-2.146-1.981-2.753.016-5.505-.016-8.258-.032-1-.005-1.321.409-.931,1.376.61,1.509,1.176,3.036,1.759,4.556,4.26,11.11,8.537,22.214,12.755,33.34a2.474,2.474,0,0,0,2.725,1.923c1.737-.086,3.483-.062,5.223-.009a2.1,2.1,0,0,0,2.258-1.573q7.224-18.961,14.511-37.9c.447-1.162.24-1.685-1.082-1.67q-3.96.047-7.92-.008a1.992,1.992,0,0,0-2.149,1.5c-.21.64-.442,1.273-.658,1.911q-3.753,11.074-7.5,22.15ZM54.561,525.668c0-2.014-.182-2.181-2.24-2.19-1.965-.008-3.93,0-5.9,0-2.413,0-2.476.062-2.476,2.446,0,11.961-.017,23.922.018,35.883,0,1.683-.221,3.152-1.884,3.978a3.624,3.624,0,0,1-4.444-.92,1.607,1.607,0,0,0-2.6.076c-1.08,1.063-2.207,2.08-3.333,3.094-1.738,1.564-1.8,2.284-.246,4.021a7.874,7.874,0,0,0,1.233,1.143c4.413,3.192,9.22,3.892,14.146,1.584a12.631,12.631,0,0,0,7.718-12.051c.052-6.064.012-12.13.012-18.193Q54.563,535.1,54.561,525.668Zm145.5.029c0-2.035-.157-2.173-2.226-2.182q-3.032-.014-6.063,0c-2.092.008-2.212.12-2.213,2.173q-.009,10.947,0,21.893c0,4.94.014,9.88-.007,14.82-.009,2.234-1.243,3.813-3.2,3.752a5.45,5.45,0,0,1-3.023-1.165c-1.144-.92-1.914-.841-2.868.148-.934.968-1.954,1.855-2.957,2.754-2.117,1.9-2.132,2.485-.057,4.52a7.5,7.5,0,0,0,.754.671c4.387,3.264,9.2,3.956,14.123,1.674a12.442,12.442,0,0,0,7.729-11.842c.044-6.063.01-12.126.011-18.189Q200.061,535.213,200.057,525.7Zm-131.274-.258c.012-1.449-.489-2.064-1.96-1.979-1.343.077-2.694,0-4.04.018-5.292.055-4.618-.7-4.629,4.662-.023,11.451.018,22.9-.035,34.354-.007,1.622.537,2.21,2.144,2.137,2.128-.1,4.268-.1,6.4,0,1.616.074,2.151-.528,2.132-2.144-.073-6.117-.029-12.237-.03-18.355C68.761,537.9,68.732,531.67,68.783,525.439Z" transform="translate(341.218 990.967)" fill-rule="evenodd" fill="url(#linear-gradient)"/>
    <g id="Group_4155" data-name="Group 4155" transform="translate(-286.995 1798.072)">
      <g id="Group_4154" data-name="Group 4154" transform="translate(747.73 -211.186)">
        <g id="Group_4153" data-name="Group 4153">
          <path id="Path_1331" data-name="Path 1331" d="M768.957-211.186l-2.584,12.225q-2.6,12.225-12.517,12.225-9.176,0-7.643-10.462h6.678q-.253,3.474,2.441,3.476,3.308,0,4.43-5.24l1.191-5.643h-13.27l1.335-6.55h13.319l.009-.033Zm21.49,0h-6.612l-2.583,12.225q-1.121,5.237-4.427,5.24t-2.185-5.24l2.581-12.225H770.61l-2.583,12.225q-2.6,12.225,7.321,12.225t12.516-12.225Zm24.8,0-5.183,24.451h6.613l5.182-24.451Zm-3.326,7.875q-.911,4.349-4.217,4.35,3.308,0,2.352,4.471-1.642,7.755-11.564,7.755H786.918l5.183-24.451h11.572Q813.591-211.186,811.92-203.311Zm-9.97,6.785h-6.183l-.7,3.351h6.184a2.117,2.117,0,0,0,1.934-1.675A1.29,1.29,0,0,0,801.95-196.525Zm1.74-8.47h-6.184l-.694,3.352H803a2.118,2.118,0,0,0,1.934-1.676A1.293,1.293,0,0,0,803.69-204.995Z" transform="translate(-745.994 211.186)" fill="#222a6c"/>
        </g>
      </g>
      <path id="Path_1332" data-name="Path 1332" d="M738.559-150.049H752.4a3.576,3.576,0,0,0,1.864,3.363,9.387,9.387,0,0,0,4.315.821,8.611,8.611,0,0,0,6.354-2.316q2.331-2.315,3.263-7.4a11.6,11.6,0,0,1-4.414,2.24,24.259,24.259,0,0,1-6.18.748,29.122,29.122,0,0,1-7.092-.785,16.3,16.3,0,0,1-5.641-2.614,9.924,9.924,0,0,1-3.6-5.23,18.438,18.438,0,0,1-.393-8.182q1.176-8.59,6.671-13.523t15.355-4.931q2.107,0,3.852.112a28.6,28.6,0,0,1,3.653.486,17.677,17.677,0,0,1,3.434,1.008,15.573,15.573,0,0,1,3,1.682,11.29,11.29,0,0,1,2.524,2.466,15.979,15.979,0,0,1,1.889,3.436,19.09,19.09,0,0,1,1.2,4.52,37.179,37.179,0,0,1,.32,5.828,59.033,59.033,0,0,1-.591,7.21,56.056,56.056,0,0,1-2.768,11.618,30.569,30.569,0,0,1-4.17,7.995,19.518,19.518,0,0,1-5.448,4.893,21.376,21.376,0,0,1-6.206,2.578,30.461,30.461,0,0,1-6.82.71q-8.975,0-13.684-3.7T738.559-150.049Zm22.664-14.644q3.926,0,5.642-1.307a5.837,5.837,0,0,0,2.111-4,4.035,4.035,0,0,0-1.325-3.886,7.4,7.4,0,0,0-4.9-1.419q-3.926,0-5.617,1.307a5.7,5.7,0,0,0-2.038,4,4.05,4.05,0,0,0,1.3,3.885A7.2,7.2,0,0,0,761.223-164.693Z" transform="translate(0.206 4.799)" fill="#fff"/>
      <path id="Path_1333" data-name="Path 1333" d="M756.964-131.9c-6.234,0-11.089-1.331-14.429-3.956-3.439-2.7-5.113-7.414-4.976-14.011l.024-1.18h16.2l.022,1.183a2.356,2.356,0,0,0,1.226,2.321,8.3,8.3,0,0,0,3.747.68,7.4,7.4,0,0,0,5.5-1.965,9.808,9.808,0,0,0,2.224-3.944,14.785,14.785,0,0,1-2.2.8,25.648,25.648,0,0,1-6.507.792,30.46,30.46,0,0,1-7.386-.821,17.578,17.578,0,0,1-6.055-2.808,11.132,11.132,0,0,1-4.046-5.841,19.693,19.693,0,0,1-.439-8.717c.82-5.985,3.2-10.782,7.06-14.249s9.313-5.24,16.161-5.24c1.428,0,2.749.039,3.93.115a30.206,30.206,0,0,1,3.806.505,19.06,19.06,0,0,1,3.668,1.079,16.935,16.935,0,0,1,3.229,1.811,12.539,12.539,0,0,1,2.793,2.73,17.306,17.306,0,0,1,2.036,3.694,20.375,20.375,0,0,1,1.28,4.806,38.563,38.563,0,0,1,.333,6.021,60.646,60.646,0,0,1-.6,7.358,57.6,57.6,0,0,1-2.832,11.871,31.882,31.882,0,0,1-4.345,8.311,20.824,20.824,0,0,1-5.785,5.193,22.674,22.674,0,0,1-6.554,2.719A31.938,31.938,0,0,1,756.964-131.9Zm-17-16.736c.078,5.171,1.441,8.829,4.057,10.884,2.906,2.284,7.259,3.441,12.94,3.441a29.535,29.535,0,0,0,6.552-.679,20.289,20.289,0,0,0,5.854-2.437,18.414,18.414,0,0,0,5.114-4.6,29.56,29.56,0,0,0,3.994-7.676,55.21,55.21,0,0,0,2.706-11.367,57.986,57.986,0,0,0,.579-7.06,36.18,36.18,0,0,0-.306-5.635A18.031,18.031,0,0,0,780.333-178a14.984,14.984,0,0,0-1.742-3.177,10.177,10.177,0,0,0-2.257-2.2,14.475,14.475,0,0,0-2.761-1.552,16.626,16.626,0,0,0-3.2-.937,27.578,27.578,0,0,0-3.5-.465c-1.128-.072-2.4-.11-3.775-.11-6.236,0-11.131,1.555-14.55,4.623s-5.541,7.379-6.282,12.79a17.341,17.341,0,0,0,.347,7.652,8.671,8.671,0,0,0,3.164,4.619A15.16,15.16,0,0,0,751-154.338a28.058,28.058,0,0,0,6.8.749,23.151,23.151,0,0,0,5.874-.708,10.43,10.43,0,0,0,3.94-1.994l2.573-2.181-.608,3.318c-.663,3.617-1.874,6.32-3.6,8.035a9.808,9.808,0,0,1-7.2,2.666,10.442,10.442,0,0,1-4.876-.96,4.564,4.564,0,0,1-2.382-3.224Zm21.462-14.644a8.372,8.372,0,0,1-5.62-1.713,5.27,5.27,0,0,1-1.7-4.965,6.862,6.862,0,0,1,2.495-4.783c1.355-1.049,3.433-1.559,6.354-1.559a8.576,8.576,0,0,1,5.686,1.706,5.251,5.251,0,0,1,1.737,4.97,7.016,7.016,0,0,1-2.574,4.791C766.429-163.789,764.344-163.282,761.429-163.282Zm1.524-10.609c-2.906,0-4.257.574-4.879,1.055a4.513,4.513,0,0,0-1.578,3.2,2.868,2.868,0,0,0,.891,2.82,6.1,6.1,0,0,0,4.043,1.127c2.3,0,4-.367,4.913-1.061a4.649,4.649,0,0,0,1.648-3.213,2.847,2.847,0,0,0-.914-2.792A6.311,6.311,0,0,0,762.953-173.89Z" transform="translate(0 4.593)" fill="#222a6c"/>
      <path id="Path_1334" data-name="Path 1334" d="M778.279-160.435q1.961-13.224,8.535-20.321t17.173-7.1q10.692,0,15.254,7.1t2.6,20.321q-1.818,13.075-8.388,20.1t-17.221,7.023q-10.6,0-15.187-7.06T778.279-160.435Zm13.247,0a19.906,19.906,0,0,0,.955,9.638,5.775,5.775,0,0,0,5.766,4.035q4.266,0,6.99-4.072a21.406,21.406,0,0,0,3.36-9.6,19.489,19.489,0,0,0-.76-9.9,5.843,5.843,0,0,0-5.863-4.072q-4.172,0-6.893,4.11A23.779,23.779,0,0,0,791.526-160.435Z" transform="translate(8.27 4.799)" fill="#fff"/>
      <path id="Path_1335" data-name="Path 1335" d="M796.44-131.9c-7.468,0-12.917-2.561-16.2-7.609-3.207-4.938-4.2-11.965-2.951-20.885,1.338-9.029,4.314-16.084,8.845-20.975,4.6-4.966,10.676-7.484,18.057-7.484,7.533,0,13.007,2.574,16.268,7.651,3.191,4.961,4.127,12.078,2.78,21.151-1.239,8.917-4.167,15.9-8.7,20.745C809.939-134.394,803.848-131.9,796.44-131.9Zm7.752-54.541c-6.682,0-12.163,2.258-16.288,6.711-4.195,4.528-6.963,11.15-8.226,19.68-1.165,8.318-.294,14.79,2.587,19.227,2.845,4.381,7.482,6.512,14.175,6.512,6.716,0,12.213-2.234,16.342-6.641,4.185-4.474,6.9-11.016,8.073-19.44,1.26-8.489.444-15.048-2.422-19.5C815.6-184.3,810.945-186.443,804.192-186.443Zm-5.741,41.093a6.989,6.989,0,0,1-6.887-4.8,21.168,21.168,0,0,1-1.031-10.219,25.111,25.111,0,0,1,3.747-10.39c2.046-3.084,4.7-4.649,7.9-4.649a7.059,7.059,0,0,1,6.986,4.838,20.77,20.77,0,0,1,.831,10.51,22.642,22.642,0,0,1-3.552,10.1C804.4-146.9,801.71-145.35,798.451-145.35Zm3.728-27.645c-2.368,0-4.295,1.168-5.888,3.57a22.727,22.727,0,0,0-3.367,9.369,18.8,18.8,0,0,0,.883,9.022,4.581,4.581,0,0,0,4.645,3.272c2.438,0,4.4-1.157,5.989-3.536a20.318,20.318,0,0,0,3.165-9.07,18.458,18.458,0,0,0-.686-9.321A4.641,4.641,0,0,0,802.179-172.995Z" transform="translate(8.065 4.593)" fill="#222a6c"/>
    </g>
  </g>
</svg>
