<svg xmlns="http://www.w3.org/2000/svg" width="253.114" height="185.312" viewBox="0 0 253.114 185.312">
  <g id="Group_4147" data-name="Group 4147" transform="translate(-372 -1442.705)">
    <path id="Path_674" data-name="Path 674" d="M149.766,455.906c-.736.469-1.241.8-1.755,1.117-7.108,4.41-14.254,8.759-21.316,13.243a14.6,14.6,0,0,0-.168,24.823c5.189,3.236,10.624,3.4,15.929.143,10.335-6.345,20.612-12.782,30.95-19.123,5.319-3.263,11.442-.548,12.484,5.538a7.262,7.262,0,0,1-3.286,7.595c-3.058,2.088-6.236,4-9.382,5.96-7.294,4.536-14.613,9.033-21.9,13.581A30.948,30.948,0,0,1,112.86,504.8c-16.046-15.428-10.918-41.818,9.895-50.509a29.387,29.387,0,0,1,25.863.915C148.915,455.363,149.191,455.555,149.766,455.906ZM206.7,494.337a30.677,30.677,0,0,0-9-35.207c-10.322-8.506-25.872-9.986-37.275-1.9-1.326.94-2.769,1.713-4.154,2.568-8.693,5.369-17.414,10.695-26.066,16.13a8.052,8.052,0,0,0,8.444,13.713c2.381-1.373,4.711-2.84,7.049-4.287,8.257-5.113,16.459-10.318,24.778-15.33a14.466,14.466,0,0,1,19.906,4.841,14.7,14.7,0,0,1-4.39,20.321c-4.392,2.82-8.893,5.47-13.338,8.209-3.286,2.024-6.558,4.068-10.005,6.209C178.293,518.928,199.763,511.352,206.7,494.337Zm-38.059,52.389c-.356-.527-.73-1.042-1.064-1.581-4.1-6.641-8.154-13.311-12.342-19.9a4,4,0,0,0-2.634-1.664c-2.621-.226-5.274-.058-7.914-.09-1.213-.015-1.7.5-1.7,1.718q.032,18.875,0,37.75c0,1.159.435,1.626,1.582,1.605,2.077-.038,4.156,0,6.235-.009,2.221-.008,2.3-.083,2.3-2.244q.008-10.28.006-20.56c0-.563.058-1.125.115-2.164.574.8.854,1.136,1.08,1.507,4.448,7.284,8.909,14.56,13.312,21.871a2.8,2.8,0,0,0,2.7,1.6c2.359-.05,4.72-.056,7.078,0,1.267.029,1.857-.426,1.855-1.745q-.026-18.707,0-37.413c0-1.359-.645-1.923-1.972-1.9-1.965.032-3.933,0-5.9.006-2.152.006-2.329.173-2.33,2.282q-.008,9.521,0,19.044V546.6Zm35.1-2.759a21.165,21.165,0,1,0,21.187-21.024A21.152,21.152,0,0,0,203.747,543.967Zm21.222,11.185a10.747,10.747,0,0,1-10.752-11.177c.053-6.227,4.782-11.135,10.708-11.11,6.008.025,10.6,4.848,10.61,11.151C235.547,550.359,231.025,555.126,224.968,555.152Zm57.733,7.363c-2.11-3.963-4.159-7.963-6.417-11.841-.888-1.523-.747-2.28.647-3.388A12.721,12.721,0,0,0,281.425,533c-1.743-5.482-6.288-9.261-11.875-9.428-6.117-.183-12.242-.036-18.363-.062-1.228-.006-1.691.533-1.689,1.733q.027,18.87,0,37.74c0,1.169.473,1.594,1.611,1.572,2.359-.044,4.719-.068,7.076.01,1.436.048,1.831-.562,1.8-1.909-.068-3.368-.032-6.739-.009-10.108a2.392,2.392,0,0,1,.279-1.424c.675-.783,4.446-.082,4.946.865a59.545,59.545,0,0,1,3.75,7.337c1.537,4.269,4.189,6.052,8.721,5.269a36.047,36.047,0,0,1,5.782-.05A18.47,18.47,0,0,0,282.7,562.515Zm-22.748-29.289c-.053-1.046.407-1.393,1.392-1.368,1.629.039,3.261-.039,4.888.025a5.2,5.2,0,0,1,5.023,5.107,5.038,5.038,0,0,1-4.741,5.166,37.238,37.238,0,0,1-5.387,0,1.691,1.691,0,0,1-1.108-1.182,36.686,36.686,0,0,1-.053-4.04C259.968,535.7,260.015,534.459,259.953,533.227ZM139.387,562.378q-4.126-10.678-8.276-21.346c-2.039-5.229-4.131-10.436-6.145-15.674a2.512,2.512,0,0,0-2.783-1.873,42.72,42.72,0,0,1-4.884,0,2.708,2.708,0,0,0-2.992,2.084c-4.762,12.356-9.583,24.691-14.374,37.037-.213.548-.312,1.139-.554,2.045,2.611,0,4.953,0,7.295,0,3.047,0,3.046-.007,4.033-2.81a23.888,23.888,0,0,0,.837-2.381,1.69,1.69,0,0,1,2.009-1.482c2.917.086,5.84.01,8.76.029,1.623.01,3.668-.506,4.752.279,1.149.833,1.385,2.927,2.018,4.47a3.6,3.6,0,0,0,.384.926c.267.329.642.8.979.8,3.117.061,6.236.036,9.6.036C139.775,563.622,139.622,562.984,139.387,562.378Zm-24.151-13.331,4.152-12.159.431-.024c1.441,4.006,2.882,8.012,4.383,12.183Zm-24.289.046c-.5-1.4-1.026-2.8-1.51-4.21q-3.329-9.715-6.637-19.439c-.36-1.058-.773-1.989-2.146-1.981-2.753.016-5.505-.016-8.258-.032-1-.005-1.321.409-.931,1.376.61,1.509,1.176,3.036,1.759,4.556,4.26,11.11,8.537,22.214,12.755,33.34a2.474,2.474,0,0,0,2.725,1.923c1.737-.086,3.483-.062,5.223-.009a2.1,2.1,0,0,0,2.258-1.573q7.224-18.961,14.511-37.9c.447-1.162.24-1.685-1.082-1.67q-3.96.047-7.92-.008a1.992,1.992,0,0,0-2.149,1.5c-.21.64-.442,1.273-.658,1.911q-3.753,11.074-7.5,22.15ZM54.561,525.668c0-2.014-.182-2.181-2.24-2.19-1.965-.008-3.93,0-5.9,0-2.413,0-2.476.062-2.476,2.446,0,11.961-.017,23.922.018,35.883,0,1.683-.221,3.152-1.884,3.978a3.624,3.624,0,0,1-4.444-.92,1.607,1.607,0,0,0-2.6.076c-1.08,1.063-2.207,2.08-3.333,3.094-1.738,1.564-1.8,2.284-.246,4.021a7.874,7.874,0,0,0,1.233,1.143c4.413,3.192,9.22,3.892,14.146,1.584a12.631,12.631,0,0,0,7.718-12.051c.052-6.064.012-12.13.012-18.193Q54.563,535.1,54.561,525.668Zm145.5.029c0-2.035-.157-2.173-2.226-2.182q-3.032-.014-6.063,0c-2.092.008-2.212.12-2.213,2.173q-.009,10.947,0,21.893c0,4.94.014,9.88-.007,14.82-.009,2.234-1.243,3.813-3.2,3.752a5.45,5.45,0,0,1-3.023-1.165c-1.144-.92-1.914-.841-2.868.148-.934.968-1.954,1.855-2.957,2.754-2.117,1.9-2.132,2.485-.057,4.52a7.5,7.5,0,0,0,.754.671c4.387,3.264,9.2,3.956,14.123,1.674a12.442,12.442,0,0,0,7.729-11.842c.044-6.063.01-12.126.011-18.189Q200.061,535.213,200.057,525.7Zm-131.274-.258c.012-1.449-.489-2.064-1.96-1.979-1.343.077-2.694,0-4.04.018-5.292.055-4.618-.7-4.629,4.662-.023,11.451.018,22.9-.035,34.354-.007,1.622.537,2.21,2.144,2.137,2.128-.1,4.268-.1,6.4,0,1.616.074,2.151-.528,2.132-2.144-.073-6.117-.029-12.237-.03-18.355C68.761,537.9,68.732,531.67,68.783,525.439Z" transform="translate(341.659 990.967)" fill="#fff" fill-rule="evenodd"/>
    <g id="Group_4161" data-name="Group 4161" transform="translate(-491.077 1831.788)">
      <g id="Group_4159" data-name="Group 4159">
        <g id="Group_4158" data-name="Group 4158">
          <path id="Path_1336" data-name="Path 1336" d="M993.869-210.831H990.9l1.342-5.633,7.994-.014h.958a10.522,10.522,0,0,1-.3,2.824,12.93,12.93,0,0,1-4.4,6.989,11.1,11.1,0,0,1-7.281,2.894,6.777,6.777,0,0,1-5.9-2.894,8.285,8.285,0,0,1-1.064-6.989,12.932,12.932,0,0,1,4.4-6.99,11.1,11.1,0,0,1,7.283-2.894,6.774,6.774,0,0,1,5.9,2.894q.189.269.362.551l-5.466,2.993a2.97,2.97,0,0,0-2.143-.79,4.756,4.756,0,0,0-3.12,1.242,5.533,5.533,0,0,0-1.886,2.994,3.542,3.542,0,0,0,.46,2.992,2.9,2.9,0,0,0,2.527,1.243,4.758,4.758,0,0,0,3.12-1.243C993.749-210.718,993.811-210.774,993.869-210.831Z" fill="#fcf70b"/>
          <path id="Path_1337" data-name="Path 1337" d="M1020.561-223.538l-1.345,5.648h-10.655l-.334,1.412h7.988l-1.346,5.647h-7.989l-.337,1.412H1017.2l-1.345,5.648H999.871l4.71-19.767Z" fill="#fcf70b"/>
          <path id="Path_1338" data-name="Path 1338" d="M1021.893-223.538h5.327l-3.366,14.119h10.655l-1.346,5.648h-15.98Z" fill="#fcf70b"/>
        </g>
      </g>
      <g id="Group_4160" data-name="Group 4160">
        <path id="Path_1339" data-name="Path 1339" d="M1032.572-235.558c-1.09-.156-2.17-.252-3.257-.35a12.236,12.236,0,0,1,2.57-.353c.154-.023.314,0,.47-.014a1.524,1.524,0,0,0,1.434-1.413c.042-.317-.173-.242-.329-.262-1.064-.138-2.13-.272-3.2-.452a11.929,11.929,0,0,1,2.257-.447c.442-.085.888-.146,1.334-.2.556-.07.537-.55.563-.9.028-.369-.36-.313-.621-.358a20.218,20.218,0,0,1-1.986-.42,12.5,12.5,0,0,1,2.228-.49c.3-.057.636-.038.769-.421.273-.786.165-.946-.671-1.03-.819-.082-1.634-.188-2.449-.29a2.037,2.037,0,0,1-.375-.178c.927-.16,1.693-.295,2.459-.426.367-.063.732-.127,1.1-.182a.57.57,0,0,0,.506-.485c.192-.73.129-.82-.647-.9-1.236-.129-2.47-.274-3.706-.412,0-.051,0-.1,0-.154l2.814-.341c.524-.064,1.048-.139,1.574-.188.423-.04.495-.349.518-.666.026-.389-.328-.279-.518-.3-1.012-.116-2.028-.2-3.042-.294a.452.452,0,0,1-.33-.162c1.063-.092,2.123-.194,3.187-.273.964-.072.976-.094,1.175-1.011.079-.366-.051-.461-.363-.485-.762-.06-1.523-.133-2.285-.186a3.191,3.191,0,0,1-1.161-.244c1.17-.139,2.19-.334,3.216-.359.765-.019,1.006-.373,1.12-1.03.121-.709.149-.679-.577-.73-1.757-.122-3.512-.269-5.275-.465a4.727,4.727,0,0,1,1.6-.3c1.313-.218,2.664-.264,3.952-.574a17.105,17.105,0,0,1,3.937-.271c1.371-.011,2.744-.059,4.116-.073.7-.008.761.074.613.745-1.109,5-2.082,10.034-3.343,15a17.108,17.108,0,0,1-4.593,8.468,12.82,12.82,0,0,1-6.976,3.388,18.878,18.878,0,0,1-5.551.05c-.535-.072-1.118-.007-1.683-.038-2.56-.143-5.126-.212-7.684-.387a19.256,19.256,0,0,1-3.675-.365l9.393-.564a8.146,8.146,0,0,1-1.69-1.625c-.107-.137-.278-.128-.434-.143l-4.789-.463a.354.354,0,0,1-.283-.154c.6-.054,1.2-.111,1.8-.163.875-.078,1.751-.164,2.628-.227.3-.021.4-.116.266-.4a.5.5,0,0,1-.021-.055c-.46-1.441-.46-1.439-2.046-1.59-.409-.039-.817-.081-1.223-.138a.7.7,0,0,1-.557-.258c.879-.138,1.723-.281,2.568-.4.457-.066.718-.157.622-.765-.181-1.132-.123-1.163-1.244-1.316-1.022-.139-2.052-.223-3.21-.344a4.512,4.512,0,0,1,1.737-.366c.728-.136,1.473-.2,2.214-.262.409-.034.567-.2.591-.62.075-1.309.094-1.309-1.192-1.512-.348-.054-.7-.093-1.046-.147-.121-.018-.324.04-.308-.165.013-.18.208-.131.335-.15.659-.1,1.314-.213,1.974-.285a.725.725,0,0,0,.714-.688c.24-1.167.265-1.175-.891-1.323-.718-.092-1.441-.142-2.162-.214-.184-.019-.393.04-.571-.183a4.791,4.791,0,0,1,1.3-.246c.793-.129,1.586-.247,2.382-.337a.55.55,0,0,0,.537-.5c.32-1.312.332-1.33-1-1.507-.951-.127-1.911-.188-2.866-.283-.377-.037-.59.048-.554.505a14.691,14.691,0,0,1-1.877,8.195,1.148,1.148,0,0,0,.164,1.586c.475.488.827,1.095,1.279,1.61.326.369.289.608-.08.906-1.419,1.144-2.822,2.308-4.233,3.465-.743.608-1.5,1.2-2.224,1.83-.288.252-.447.2-.653-.072-.4-.532-.83-1.043-1.226-1.58a.368.368,0,0,0-.576-.127A15.912,15.912,0,0,1,999.994-226a16.271,16.271,0,0,1-4.852.015c-.9-.128-1.8-.095-2.7-.155-2.286-.153-4.58-.177-6.871-.268-1.682-.066-3.364-.156-5.047-.239-.07,0-.139-.039-.205-.166l11.111-.543c-.736-.516-1.3-1.137-1.982-1.524a4.673,4.673,0,0,0-1.838-.229q-3.042-.237-6.087-.457c-.364-.026-.732,0-1.1,0,0-.05-.006-.1-.008-.152.4-.053.808-.128,1.216-.155,1.425-.1,2.853-.187,4.281-.255a18.013,18.013,0,0,1,2.052-.13c.307.02.321-.144.179-.37-.167-.265-.339-.53-.484-.806a.73.73,0,0,0-.662-.391c-1.861-.186-3.72-.4-5.58-.658a16.805,16.805,0,0,1,2.731-.474c.773-.117,1.547-.221,2.323-.317.284-.035.367-.166.292-.431a3.519,3.519,0,0,1-.115-.515c-.049-.449-.225-.646-.739-.68-1.97-.13-3.935-.332-5.991-.514a4.384,4.384,0,0,1,1.73-.324c1.339-.167,2.685-.295,4.031-.394.528-.039.828-.181.737-.768a2.12,2.12,0,0,1,0-.471c.032-.4-.153-.542-.548-.578-1.071-.1-2.14-.23-3.207-.361a1.125,1.125,0,0,1-.564-.247c.752-.1,1.507-.194,2.26-.289.641-.082,1.281-.169,1.922-.237a.464.464,0,0,0,.417-.348c.477-1.216.339-1.4-.966-1.461-1.213-.056-2.423-.17-3.633-.263a1.122,1.122,0,0,1-.642-.229c1.227-.144,2.346-.276,3.465-.4.72-.083,1.438-.171,2.16-.235a.526.526,0,0,0,.488-.353c.045-.108.092-.217.136-.325.419-1.02.419-1.028-.718-1.117-1.66-.129-3.321-.239-4.981-.371a2.769,2.769,0,0,1-.96-.261l3.676-.285c1.191-.093,2.381-.206,3.574-.275a1.2,1.2,0,0,0,1.076-.667,11.408,11.408,0,0,1,.662-.952l-7.555-.487c0-.049,0-.1,0-.145.738-.051,1.475-.108,2.212-.153,1.938-.118,3.873-.254,5.813-.337.951-.041,1.293-.868,1.9-1.352.192-.155-.053-.246-.217-.255-.783-.043-1.566-.078-2.349-.124q-2.054-.117-4.109-.247a.263.263,0,0,1-.211-.148c1.067-.089,2.133-.185,3.2-.265,1.72-.128,3.441-.241,5.161-.373a1.494,1.494,0,0,0,.614-.177c.537-.313,1.053-.658,1.736-1.092l-11.4-.451a11.863,11.863,0,0,1,3.109-.366c2.911-.235,5.827-.419,8.742-.586,2.4-.138,4.806-.38,7.219-.38a10.524,10.524,0,0,1,10.383,7.271,6.649,6.649,0,0,1,.328,1.31c.059.406.245.528.629.491,1.365-.131,2.73-.248,4.1-.373a.535.535,0,0,0,.485-.436c.436-1.378.443-1.4-.992-1.547-.987-.1-1.983-.143-3.056-.218.234-.294.49-.223.7-.24,1.113-.093,2.227-.181,3.344-.238a.545.545,0,0,0,.6-.481c.349-1.409.358-1.374-1.071-1.467a10.513,10.513,0,0,1-2.848-.362l3.055-.293c.078-.007.157,0,.235-.007,1.11-.072,1.358-.346,1.407-1.46.018-.4-.233-.324-.458-.338q-2.845-.183-5.692-.371a.647.647,0,0,1-.477-.116,4.414,4.414,0,0,1,1.563-.259c1.535-.2,3.1-.235,4.609-.542a16.7,16.7,0,0,1,3.4-.346c1.7,0,3.41.019,5.116.023.391,0,.314.213.259.469q-.8,3.646-1.592,7.3c-.523,2.431-1.05,4.862-1.549,7.3a6.886,6.886,0,0,0-.031,2.344,2.5,2.5,0,0,0,2.288,2.307A4.006,4.006,0,0,0,1032.572-235.558Zm-25.98-4.753c.03-2.874-1.348-4.684-3.436-5.14a6.294,6.294,0,0,0-2.157-.063,7.674,7.674,0,0,0-6.385,7.149,4.547,4.547,0,0,0,5.286,4.524,7.264,7.264,0,0,0,3.414-1.3A7,7,0,0,0,1006.592-240.311Z" fill="#fff" fill-rule="evenodd"/>
        <path id="Path_1340" data-name="Path 1340" d="M1043.745-241.295c.92-.162,1.835-.38,2.763-.467.639-.06.859-.34.962-.932.188-1.071.221-1.056-.845-1.147-.759-.066-1.517-.159-2.272-.247a.419.419,0,0,1-.412-.263c1.08-.132,2.138-.305,3.2-.373a.855.855,0,0,0,.925-.758c.29-1.245.3-1.19-.955-1.319a7.476,7.476,0,0,1-2.352-.342c.607-.076,1.052-.144,1.5-.184.6-.054,1.208-.093,1.813-.125a.458.458,0,0,0,.483-.348,3.3,3.3,0,0,0,.244-1.314c-.122-.566-.713-.159-1.081-.278-.685-.22-1.446.011-2.168-.32a10.031,10.031,0,0,1,2.029-.321,8.84,8.84,0,0,1,1.163-.127.38.38,0,0,0,.385-.3c.011-.038.024-.075.035-.112.417-1.4.346-1.464-1.137-1.523a7.251,7.251,0,0,1-2.484-.373c.716-.1,1.431-.194,2.146-.285.426-.055.859-.074,1.279-.153.347-.066.756-.061.858-.559.04-.2.273-.189.451-.189q3.593,0,7.183-.008c.547,0,.409.343.342.648-.484,2.2-.977,4.391-1.456,6.589q-1.543,7.079-3.076,14.159c-.361,1.662-.71,3.327-1.091,4.985-.075.322-.023.452.3.429,1.074-.074,2.145-.155,3.216-.233.061-.5.516-.286.772-.431.433-.246.309-.724.444-1.091.114-.305-.046-.508-.376-.5a9.246,9.246,0,0,0-1.578-.081,4.859,4.859,0,0,1-2.161-.419c1.089-.264,2.253-.207,3.222-.9.118.35-.225.214-.157.411a1.321,1.321,0,0,0,1.289-.186c.339-.194.35-.815.305-1.286-.021-.231-.146-.343-.409-.378-.744-.1-1.484-.247-2.345-.4a4.4,4.4,0,0,1,1.739-.52c.188-.052.385-.066.574-.114a1.434,1.434,0,0,0,1.187-1.607c-.01-.243-.153-.311-.344-.3-1.112.043-2.154-.365-3.387-.407a1.533,1.533,0,0,1,1.1-.374c.839-.074,1.655-.286,2.49-.355a.555.555,0,0,0,.586-.506c.327-1.34.342-1.332-1.027-1.545a4.27,4.27,0,0,1-1.418-.327,13.686,13.686,0,0,1,2.161-.454c.281-.066.677-.017.79-.281a4.983,4.983,0,0,0,.331-1.421c.027-.258-.271-.21-.46-.229-.855-.085-1.711-.169-2.566-.258a.458.458,0,0,1-.389-.211,20.489,20.489,0,0,1,2.265-.436c.039-.008.079,0,.118-.008,1.364-.186,1.455-.284,1.693-1.637.05-.283,0-.376-.3-.406-.972-.1-1.94-.232-2.91-.339a1.678,1.678,0,0,1-.778-.253c.8-.109,1.492-.206,2.187-.3.348-.045.7-.086,1.047-.117a1.394,1.394,0,0,0,1.411-1.679c-.019-.226-.164-.244-.32-.261-.718-.077-1.437-.165-2.158-.213a2.075,2.075,0,0,1-1.043-.266c.418-.055.835-.127,1.253-.163.663-.057,1.328-.112,1.991-.125.36-.007.555-.134.611-.484.005-.038.022-.075.031-.113.307-1.227.3-1.19-.931-1.356a10.745,10.745,0,0,1-2.327-.3,7.659,7.659,0,0,1,1.782-.32,6.381,6.381,0,0,1,1.4-.133c.462.008.607-.225.688-.617.259-1.265.266-1.258-1.041-1.314-.743-.03-1.484-.083-2.227-.126a.8.8,0,0,1-.587-.25c1.336-.183,2.6-.359,3.876-.525.195-.026.416,0,.482-.24.116-.428.445-.438.791-.438,2.217,0,4.435-.007,6.652-.005.741,0,.779.046.622.783-.449,2.1-.894,4.208-1.374,6.3-.116.506-.046.627.514.683,1.16.115,1.567-.83,2.222-1.415.248-.221-.085-.266-.234-.285-.5-.065-1-.109-1.579-.169a2.572,2.572,0,0,1,1.707-.32,2.431,2.431,0,0,0,1.912-.946c.181-.21.609-.337.482-.65-.1-.245-.493-.14-.763-.166-.89-.083-1.779-.177-2.768-.278a3.773,3.773,0,0,1,1.718-.357,25.485,25.485,0,0,1,2.621-.266c.825-.057,1.118-.777,1.77-1.255-1.451-.287-2.8-.23-4.131-.372.034-.3.229-.243.366-.254q2.163-.185,4.326-.358c.176-.014.38.005.494-.142.4-.515.952-.451,1.5-.45,2.787,0,5.574,0,8.361.007.181,0,.444-.107.525.118.067.183-.184.273-.3.389q-6.712,6.474-13.438,12.936a.639.639,0,0,0-.144.944q2.943,4.855,5.853,9.73c.626,1.042,1.238,2.092,1.872,3.129.217.354.207.511-.266.51-2.984-.009-5.966-.013-8.949,0-.371,0-.635-.249-1.005-.258-1.871-.051-3.744-.145-5.614-.224-.215-.009-.432,0-.647-.029-.658-.073-.734-.271-.228-1.062-.27.817.158.794.553.76a52.072,52.072,0,0,1,5.4-.217c.375.007.443-.091.267-.44a1.075,1.075,0,0,0-1.027-.676c-1.558-.106-3.108-.317-4.666-.545a5.134,5.134,0,0,1,1.784-.321c.534-.1,1.093-.079,1.636-.148.311-.039.789-.009.786-.43a.917.917,0,0,0-.724-.943c-.913-.218-1.847-.313-2.831-.477a.672.672,0,0,1,.655-.311,10.179,10.179,0,0,0,1.335-.152c.214-.043.225-.107.239-.3a1.456,1.456,0,0,0-1.17-1.419c-.242-.018-.505.053-.7-.114.006-.189.114-.189.208-.2.817-.1.815-.1.394-.785-.234-.383-.458-.773-.741-1.251-.318,1.427-.62,2.765-.911,4.106-.362,1.663-.715,3.328-1.07,4.993-.054.257-.171.432-.466.429-2.918-.038-5.839.113-8.76-.107.014-.246.23-.1.261-.312-1.113-.057-2.221-.116-3.33-.165-.084,0-.229.054-.247.113-.173.579-.64.473-1.06.474-1.315,0-2.631-.032-3.945.008-2.612.077-5.194-.3-7.792-.465-1.169-.073-2.337-.164-3.506-.25-.15-.011-.317.051-.482-.139.762-.1,1.486-.224,2.214-.279,1.872-.141,3.749-.235,5.62-.383.426-.034,1,.112,1.151-.546.244-1.069.309-1.082-.787-1.15-1.468-.091-2.927-.321-4.39-.548a6.242,6.242,0,0,1,1.993-.325c1.046-.138,2.1-.233,3.15-.319.423-.035.657-.2.668-.639a1.6,1.6,0,0,1,.077-.283c.171-.736.171-.737-.582-.887a9.327,9.327,0,0,1-1.791-.34c.206-.325.536-.261.8-.331s.577-.1.866-.153c1.114-.182,1.455-.619,1.447-1.774,0-.3-.177-.246-.341-.267l-2.732-.351c-.11-.014-.239.021-.332-.148a2.694,2.694,0,0,1,1.209-.281c.654-.114,1.313-.2,1.972-.286a.713.713,0,0,0,.676-.667c.306-1.438.419-1.142-.954-1.455a3.346,3.346,0,0,1-1.308-.322,10.465,10.465,0,0,1,2.117-.434.8.8,0,0,0,.781-.706c.28-1.2.3-1.2-.964-1.337A6.057,6.057,0,0,1,1043.745-241.295Z" fill="#fff" fill-rule="evenodd"/>
        <path id="Path_1341" data-name="Path 1341" d="M966.637-239.717c1.806.546,2.306,1.764,2.174,3.411a10.627,10.627,0,0,1-3.3,7.261,11.771,11.771,0,0,1-5.7,2.744,23.787,23.787,0,0,1-5.074.488c-4.317-.015-8.633,0-12.951-.006-.853,0-.859,0-.675-.846q1.6-7.31,3.2-14.618c.844-3.864,1.7-7.727,2.516-11.6.116-.549.345-.712.9-.709,4.768.023,9.537-.016,14.3.027a12.78,12.78,0,0,1,5.919,1.308c2.4,1.257,3.249,3.336,3.064,5.924a11.744,11.744,0,0,1-.595,2.929A4.937,4.937,0,0,1,966.637-239.717Zm-10.368-2.906c1.019,0,2.04.031,3.056-.01a4.675,4.675,0,0,0,2.663-.772,1.947,1.947,0,0,0,.808-1.9c-.092-.729-.654-1.07-1.313-1.268a5.424,5.424,0,0,0-1.03-.218c-2.169-.22-4.344-.042-6.514-.1-.361-.011-.465.192-.53.492-.229,1.092-.459,2.183-.716,3.269-.091.387-.016.53.4.522C954.154-242.638,955.213-242.623,956.269-242.623Zm-1.963,9.792v-.019c1.059,0,2.119.034,3.175-.009a3.763,3.763,0,0,0,2.645-.946,1.53,1.53,0,0,0-.512-2.621,4.213,4.213,0,0,0-1.542-.336c-2.077-.023-4.156-.011-6.234-.036-.431,0-.58.187-.656.568-.192.96-.384,1.921-.628,2.868-.121.474.066.539.459.535C952.11-232.838,953.208-232.831,954.306-232.831Z" fill="#fff" fill-rule="evenodd"/>
        <path id="Path_1342" data-name="Path 1342" d="M927.281-225.821a13.282,13.282,0,0,1-3.929-.468,7.07,7.07,0,0,1-5.469-6.143,20.148,20.148,0,0,1,.505-7.63c.919-4.251,1.873-8.494,2.777-12.748.127-.6.348-.79.96-.78,2.2.035,4.4.021,6.594,0,.5-.006.594.144.49.619q-1.539,7-3.033,14.012a7.973,7.973,0,0,0-.124,2.743c.267,1.96,1.757,2.594,3.4,2.373,2.27-.3,3.352-1.924,4.066-3.871a40.981,40.981,0,0,0,1.319-5.415c.713-3.253,1.43-6.506,2.128-9.762.105-.49.294-.706.849-.7,2.238.036,4.476.024,6.713.008.464,0,.57.135.469.588-1.091,4.9-2.106,9.812-3.263,14.693a18.13,18.13,0,0,1-4.318,8.439,12.575,12.575,0,0,1-7.257,3.8A12.421,12.421,0,0,1,927.281-225.821Z" fill="#fff" fill-rule="evenodd"/>
        <path id="Path_1343" data-name="Path 1343" d="M910.1-253.575q4.326,0,8.653,0c.681,0,.708.039.56.7-1.078,4.874-2.112,9.757-3.251,14.617a18.319,18.319,0,0,1-3.93,8,12.5,12.5,0,0,1-7.73,4.206,14.945,14.945,0,0,1-7.418-.468,7.018,7.018,0,0,1-4.77-6.141,17.6,17.6,0,0,1-.008-4.339c.057-.531.235-.8.837-.794,2.218.027,4.434.021,6.652,0,.5-.005.732.154.69.673a4.162,4.162,0,0,0,.026.764c.191,1.9,1.487,2.676,3.223,2.528a4.485,4.485,0,0,0,3.638-2.557,17.476,17.476,0,0,0,1.508-4.808c.289-1.282.533-2.574.835-3.852.111-.463,0-.572-.465-.569-3.1.017-6.2.009-9.3.009-.845,0-.859,0-.687-.817.452-2.129.936-4.251,1.365-6.384a.821.821,0,0,1,.977-.786C904.37-253.557,907.235-253.575,910.1-253.575Z" fill="#fff" fill-rule="evenodd"/>
        <path id="Path_1344" data-name="Path 1344" d="M972.53-225.819c-1.118,0-2.237-.024-3.354.011-.539.017-.616-.172-.51-.651q1.3-5.877,2.569-11.76c1.06-4.862,2.13-9.721,3.166-14.588.128-.595.364-.792.973-.782,2.177.036,4.354.03,6.532,0,.577-.007.649.195.538.7q-2.889,13.156-5.749,26.32c-.119.553-.328.791-.928.763C974.69-225.854,973.609-225.818,972.53-225.819Z" fill="#fff" fill-rule="evenodd"/>
      </g>
    </g>
  </g>
</svg>
