<svg xmlns="http://www.w3.org/2000/svg" xmlns:xlink="http://www.w3.org/1999/xlink" width="63" height="63" viewBox="0 0 63 63">
  <defs>
    <filter id="Ellipse_10" x="0" y="0" width="63" height="63" filterUnits="userSpaceOnUse">
      <feOffset dy="3" input="SourceAlpha"/>
      <feGaussianBlur stdDeviation="3" result="blur"/>
      <feFlood flood-opacity="0.161"/>
      <feComposite operator="in" in2="blur"/>
      <feComposite in="SourceGraphic"/>
    </filter>
  </defs>
  <g id="Group_991" data-name="Group 991" transform="translate(9 -3054)">
    <g transform="matrix(1, 0, 0, 1, -9, 3054)" filter="url(#Ellipse_10)">
      <circle id="Ellipse_10-2" data-name="Ellipse 10" cx="22.5" cy="22.5" r="22.5" transform="translate(9 6)" fill="#ecab2b"/>
    </g>
    <path id="Icon_feather-phone" data-name="Icon feather-phone" d="M24.8,19.225v3.262a2.175,2.175,0,0,1-2.371,2.175,21.521,21.521,0,0,1-9.385-3.338A21.205,21.205,0,0,1,6.515,14.8,21.52,21.52,0,0,1,3.177,5.371,2.175,2.175,0,0,1,5.341,3H8.6a2.175,2.175,0,0,1,2.175,1.87,13.963,13.963,0,0,0,.761,3.056,2.175,2.175,0,0,1-.489,2.294L9.669,11.6a17.4,17.4,0,0,0,6.525,6.525l1.381-1.381a2.175,2.175,0,0,1,2.295-.489,13.963,13.963,0,0,0,3.056.761,2.175,2.175,0,0,1,1.87,2.208Z" transform="translate(9.171 3069.339)" fill="rgba(0,0,0,0)" stroke="#fff" stroke-width="1"/>
  </g>
</svg>
