<svg xmlns="http://www.w3.org/2000/svg" width="132.303" height="133.986" viewBox="0 0 132.303 133.986">
  <g id="Group_3733" data-name="Group 3733" transform="translate(1 0)">
    <path id="Path_798" data-name="Path 798" d="M509.464,211.978l-11.278-7.894V178.71l28.969-9.613-9.667-7.074-29.452,8.793v25.938l-10.149-7.33V161.794l28-8.206-9.9-7.23-28.818,7.824v50.466l53.567,44.288,28.926-12.148,1.291-42.471v-1.484l-17.221-13.069-24.273,7.69v24.524" transform="translate(-466.094 -114.949)" fill="#756d3e"/>
    <g id="Group_3732" data-name="Group 3732" transform="translate(60.15 0)">
      <path id="Rectangle_158" data-name="Rectangle 158" d="M10.043,0H60.11A10.043,10.043,0,0,1,70.153,10.043V60.794A10.042,10.042,0,0,1,60.111,70.836H10.043A10.043,10.043,0,0,1,0,60.793V10.043A10.043,10.043,0,0,1,10.043,0Z" transform="translate(0.229 6.592)" fill="#fff"/>
      <path id="Rectangle_159" data-name="Rectangle 159" d="M10.043,0H60.111A10.042,10.042,0,0,1,70.153,10.042V60.794A10.042,10.042,0,0,1,60.111,70.836H10.042A10.042,10.042,0,0,1,0,60.794V10.043A10.043,10.043,0,0,1,10.043,0Z" transform="translate(0 6.247)" fill="none" stroke="#000" stroke-width="2"/>
      <line id="Line_138" data-name="Line 138" x2="63.958" transform="translate(6.195 24.549)" fill="none" stroke="#000" stroke-width="2"/>
      <g id="Group_3731" data-name="Group 3731" transform="translate(17.848)">
        <line id="Line_139" data-name="Line 139" y1="13.859" fill="none" stroke="#000" stroke-width="2"/>
        <line id="Line_140" data-name="Line 140" y1="13.859" transform="translate(36.088)" fill="none" stroke="#000" stroke-width="2"/>
      </g>
    </g>
    <path id="Path_799" data-name="Path 799" d="M520.116,138.229l-54.071,14.908V203.6" transform="translate(-466.045 -114.594)" fill="none" stroke="#000" stroke-width="2"/>
    <path id="Path_800" data-name="Path 800" d="M535.056,193.552l-13,4.147v45.536" transform="translate(-468.493 -117.012)" fill="none" stroke="#000" stroke-width="2"/>
    <line id="Line_141" data-name="Line 141" x1="1.291" y2="42.471" transform="translate(82.493 78.677)" fill="none" stroke="#000" stroke-width="2"/>
    <line id="Line_142" data-name="Line 142" x2="9.898" y2="7.23" transform="translate(28.818 30.718)" fill="none" stroke="#000" stroke-width="2"/>
    <line id="Line_143" data-name="Line 143" x2="10.149" y2="7.331" transform="translate(10.714 73.783)" fill="none" stroke="#000" stroke-width="2"/>
    <line id="Line_144" data-name="Line 144" x2="11.278" y2="7.894" transform="translate(31.013 88.444)" fill="none" stroke="#000" stroke-width="2"/>
    <path id="Path_801" data-name="Path 801" d="M477.248,189.032V161.4l28-8.206" transform="translate(-466.534 -115.248)" fill="none" stroke="#000" stroke-width="2"/>
    <path id="Path_802" data-name="Path 802" d="M487.861,196.748V170.81l29.451-8.793,9.667,7.074L498.011,178.7v25.374" transform="translate(-466.998 -115.634)" fill="none" stroke="#000" stroke-width="2"/>
    <path id="Path_803" data-name="Path 803" d="M510.268,212.894V188.369l16.04-5.263" transform="translate(-467.977 -116.556)" fill="none" stroke="#000" stroke-width="2"/>
    <line id="Line_145" data-name="Line 145" x2="53.567" y2="42.145" transform="translate(0 38.542)" fill="none" stroke="#000" stroke-width="2"/>
    <line id="Line_146" data-name="Line 146" y1="8.274" x2="22.703" transform="translate(83.116 92.391)" fill="none" stroke="#000" stroke-width="2"/>
  </g>
</svg>
