<svg xmlns="http://www.w3.org/2000/svg" width="137.557" height="130.647" viewBox="0 0 137.557 130.647">
  <g id="Group_3730" data-name="Group 3730" transform="translate(1.184 1)">
    <path id="Path_790" data-name="Path 790" d="M777.34,224l40.6-23.185v20.81l-40.713,26.8Z" transform="translate(-682.221 -120.168)" fill="#c09e87"/>
    <rect id="Rectangle_155" data-name="Rectangle 155" width="93.98" height="9.458" transform="translate(1.539 105.034)" fill="#c09e87"/>
    <rect id="Rectangle_156" data-name="Rectangle 156" width="93.98" height="15.257" transform="translate(1.539 114.205)" fill="#a5836b"/>
    <rect id="Rectangle_157" data-name="Rectangle 157" width="94.32" height="24.427" transform="translate(0.34 103.835)" fill="none" stroke="#000" stroke-linecap="round" stroke-linejoin="round" stroke-width="2"/>
    <line id="Line_121" data-name="Line 121" x2="94.32" transform="translate(0 116.048)" fill="none" stroke="#000" stroke-linecap="round" stroke-linejoin="round" stroke-width="2"/>
    <path id="Path_791" data-name="Path 791" d="M777.051,224l40.6-23.185v20.81l-40.713,26.8" transform="translate(-682.279 -120.168)" fill="none" stroke="#000" stroke-linecap="round" stroke-linejoin="round" stroke-width="2"/>
    <path id="Path_792" data-name="Path 792" d="M698.159,224.1l42.805-23.183h92.057" transform="translate(-697.988 -120.149)" fill="#fff" stroke="#000" stroke-linecap="round" stroke-linejoin="round" stroke-width="2"/>
    <path id="Path_793" data-name="Path 793" d="M719.139,179.624l42.648,37.525.74-.666,43.241-38.864" transform="translate(-693.804 -124.794)" fill="none" stroke="#000" stroke-linecap="round" stroke-linejoin="round" stroke-width="2"/>
    <path id="Path_794" data-name="Path 794" d="M719.929,188.044l-.791-8.63h9.273" transform="translate(-693.804 -124.436)" fill="none" stroke="#000" stroke-linecap="round" stroke-linejoin="round" stroke-width="2"/>
    <g id="Group_3729" data-name="Group 3729" transform="translate(31.997 0)">
      <line id="Line_122" data-name="Line 122" y2="22.698" transform="translate(28.721)" fill="none" stroke="#000" stroke-linecap="round" stroke-linejoin="round" stroke-width="2"/>
      <line id="Line_123" data-name="Line 123" y1="22.699" transform="translate(28.721 34.744)" fill="none" stroke="#000" stroke-linecap="round" stroke-linejoin="round" stroke-width="2"/>
      <line id="Line_124" data-name="Line 124" x1="22.699" transform="translate(0 28.721)" fill="none" stroke="#000" stroke-linecap="round" stroke-linejoin="round" stroke-width="2"/>
      <line id="Line_125" data-name="Line 125" x1="22.697" transform="translate(34.745 28.721)" fill="none" stroke="#000" stroke-linecap="round" stroke-linejoin="round" stroke-width="2"/>
      <line id="Line_126" data-name="Line 126" x2="16.05" y2="16.051" transform="translate(8.412 8.413)" fill="none" stroke="#000" stroke-linecap="round" stroke-linejoin="round" stroke-width="2"/>
      <line id="Line_127" data-name="Line 127" x1="16.051" y1="16.05" transform="translate(32.98 32.981)" fill="none" stroke="#000" stroke-linecap="round" stroke-linejoin="round" stroke-width="2"/>
      <line id="Line_128" data-name="Line 128" x1="16.05" y2="16.051" transform="translate(8.412 32.98)" fill="none" stroke="#000" stroke-linecap="round" stroke-linejoin="round" stroke-width="2"/>
      <line id="Line_129" data-name="Line 129" x1="16.05" y2="16.049" transform="translate(32.981 8.413)" fill="none" stroke="#000" stroke-linecap="round" stroke-linejoin="round" stroke-width="2"/>
      <line id="Line_130" data-name="Line 130" x2="5.677" y2="13.703" transform="translate(20.74 9.455)" fill="none" stroke="#000" stroke-linecap="round" stroke-linejoin="round" stroke-width="2"/>
      <line id="Line_131" data-name="Line 131" x2="5.677" y2="13.702" transform="translate(31.025 34.285)" fill="none" stroke="#000" stroke-linecap="round" stroke-linejoin="round" stroke-width="2"/>
      <line id="Line_132" data-name="Line 132" y1="5.676" x2="13.701" transform="translate(9.456 31.026)" fill="none" stroke="#000" stroke-linecap="round" stroke-linejoin="round" stroke-width="2"/>
      <line id="Line_133" data-name="Line 133" x1="13.701" y2="5.675" transform="translate(34.286 20.741)" fill="none" stroke="#000" stroke-linecap="round" stroke-linejoin="round" stroke-width="2"/>
      <line id="Line_134" data-name="Line 134" x2="13.701" y2="5.676" transform="translate(9.456 20.741)" fill="none" stroke="#000" stroke-linecap="round" stroke-linejoin="round" stroke-width="2"/>
      <line id="Line_135" data-name="Line 135" x2="13.701" y2="5.676" transform="translate(34.286 31.027)" fill="none" stroke="#000" stroke-linecap="round" stroke-linejoin="round" stroke-width="2"/>
      <line id="Line_136" data-name="Line 136" x1="5.675" y2="13.702" transform="translate(31.025 9.455)" fill="none" stroke="#000" stroke-linecap="round" stroke-linejoin="round" stroke-width="2"/>
      <line id="Line_137" data-name="Line 137" x1="5.675" y2="13.702" transform="translate(20.743 34.285)" fill="none" stroke="#000" stroke-linecap="round" stroke-linejoin="round" stroke-width="2"/>
      <path id="Path_795" data-name="Path 795" d="M755.635,158.512a6.006,6.006,0,1,1-6-6.005A6.005,6.005,0,0,1,755.635,158.512Z" transform="translate(-720.919 -129.801)" fill="#e0dc3b" stroke="#000" stroke-linecap="round" stroke-linejoin="round" stroke-width="2"/>
    </g>
    <path id="Path_796" data-name="Path 796" d="M790.365,162.926l-7.64-18.444-7.639,18.444a8.3,8.3,0,1,0,15.279,0Z" transform="translate(-682.776 -131.402)" fill="#c7dde2"/>
    <path id="Path_797" data-name="Path 797" d="M790.64,161.974,783,143.53l-7.638,18.444a8.3,8.3,0,1,0,15.278,0Z" transform="translate(-682.72 -131.592)" fill="none" stroke="#000" stroke-linecap="round" stroke-linejoin="round" stroke-width="2"/>
  </g>
</svg>
