<svg xmlns="http://www.w3.org/2000/svg" width="192.234" height="108.389" viewBox="0 0 192.234 108.389">
  <g id="Group_3728" data-name="Group 3728" transform="translate(0.999 0.594)">
    <path id="Path_781" data-name="Path 781" d="M387.7,137.248v17.592l-75.787,88.379v0H197.845V224.37" transform="translate(-197.844 -136.423)" fill="#fff" stroke="#000" stroke-linecap="round" stroke-linejoin="round" stroke-width="2"/>
    <path id="Path_782" data-name="Path 782" d="M273.982,136.9H388.046L311.873,224.02H198.194Z" transform="translate(-197.81 -136.493)" fill="#756d3e"/>
    <path id="Path_783" data-name="Path 783" d="M271.251,136.56l-21.133,24.294-22.591,25.97H330.2l2.576-.136c.309.017.615.043.932.043,4.6,0,9.7-3.367,13.9-7.044l37.706-43.127Z" transform="translate(-194.992 -136.56)" fill="#c09e87"/>
    <path id="Path_784" data-name="Path 784" d="M336.542,182.6c-17.295,0-24.363-25.784-24.363-25.784H198.115s3.861,20.943,20.535,25.97H333.021Z" transform="translate(-197.818 -132.521)" fill="#a5836b"/>
    <path id="Path_785" data-name="Path 785" d="M252.848,161.192,273.982,136.9H388.046L311.873,224.02H198.194l32.064-36.859" transform="translate(-197.81 -136.493)" fill="none" stroke="#000" stroke-linecap="round" stroke-linejoin="round" stroke-width="2"/>
    <path id="Path_786" data-name="Path 786" d="M332.942,183.123H218.57c-16.672-5.027-20.534-25.97-20.534-25.97H312.1s7.068,25.784,24.363,25.784c7.652,0,19.706-13.694,19.706-13.694" transform="translate(-197.825 -132.454)" fill="none" stroke="#000" stroke-linecap="round" stroke-linejoin="round" stroke-width="2"/>
    <path id="Path_787" data-name="Path 787" d="M251.385,178.8s1,15.095-5.972,19.723-16.175.817-22.893,7.9-5.974,9.658-5.974,9.658" transform="translate(-196.05 -128.136)" fill="none" stroke="#000" stroke-linecap="round" stroke-linejoin="round" stroke-width="2"/>
    <path id="Path_788" data-name="Path 788" d="M269.4,178.8s.568,11.815,0,14.549c-1.244,5.991-10.452,7.08-13.189,9.53s-5.475,9.22-3.982,12.78" transform="translate(-192.66 -128.136)" fill="none" stroke="#000" stroke-linecap="round" stroke-linejoin="round" stroke-width="2"/>
    <path id="Path_789" data-name="Path 789" d="M285.471,178.8a9.553,9.553,0,0,1,2.08,11.4c-3.234,6.965-13.934,18.363-7.962,25.462" transform="translate(-190.162 -128.136)" fill="none" stroke="#000" stroke-linecap="round" stroke-linejoin="round" stroke-width="2"/>
  </g>
</svg>
