<svg xmlns="http://www.w3.org/2000/svg" width="30.317" height="27.896" viewBox="0 0 30.317 27.896">
  <path id="best-price" d="M173.306,196.3h5.965v16.5h-5.965a2.181,2.181,0,0,1-2.178-2.178V198.477a2.181,2.181,0,0,1,2.178-2.178Zm8.1-.446v15.7a11.525,11.525,0,0,1,1.711.765,6.7,6.7,0,0,0,3.247.989h9.982a3,3,0,0,0,2.583-4.541,3,3,0,0,0,.7-3.876,3,3,0,0,0,.7-3.876,3,3,0,0,0-1.884-5.345h-5.464a9.313,9.313,0,0,0-2.466-9.708c-.022-.021-.045-.043-.07-.062a2.148,2.148,0,0,0-1.829-.438,1.917,1.917,0,0,0-1.588,1.825c-.01.832-.149,2.286-.409,4.323a1.1,1.1,0,0,0,0,.267c.036.282.141,1.131-1.823,1.945a7.156,7.156,0,0,0-3.385,2.036Z" transform="translate(-171.128 -185.406)" fill-rule="evenodd"/>
</svg>
