<svg xmlns="http://www.w3.org/2000/svg" width="16.291" height="16.322" viewBox="0 0 16.291 16.322">
  <path id="Icon_feather-phone" data-name="Icon feather-phone" d="M18.458,14.47v2.306a1.538,1.538,0,0,1-1.676,1.538,15.214,15.214,0,0,1-6.635-2.36,14.991,14.991,0,0,1-4.613-4.613,15.214,15.214,0,0,1-2.36-6.665A1.538,1.538,0,0,1,4.7,3H7.01A1.538,1.538,0,0,1,8.548,4.322a9.871,9.871,0,0,0,.538,2.16A1.538,1.538,0,0,1,8.74,8.1l-.976.976a12.3,12.3,0,0,0,4.613,4.613l.976-.976a1.538,1.538,0,0,1,1.622-.346,9.871,9.871,0,0,0,2.16.538,1.538,1.538,0,0,1,1.322,1.561Z" transform="translate(-2.667 -2.5)" fill="none" stroke="#ecab2b" stroke-width="1"/>
</svg>
