<svg id="Group_4059" data-name="Group 4059" xmlns="http://www.w3.org/2000/svg" width="37.626" height="41.798" viewBox="0 0 37.626 41.798">
  <g id="Group_3863" data-name="Group 3863" transform="translate(0.925 16.39)">
    <g id="Group_3862" data-name="Group 3862">
      <g id="Group_3861" data-name="Group 3861">
        <path id="Path_824" data-name="Path 824" d="M126.8,193.526l-13.988-5.384,4.012-10.186a.592.592,0,0,1,.739.21,56.516,56.516,0,0,0,4.485,5.121c.582.369,5.65,2.534,5.912-3.59,1.795,1,10.505,4.434,10.505,4.434l-2.85,6.388" transform="translate(-112.81 -177.902)"/>
        <path id="Path_825" data-name="Path 825" d="M126.8,193.526l-13.988-5.384,4.012-10.186a.592.592,0,0,1,.739.21,56.516,56.516,0,0,0,4.485,5.121c.582.369,5.65,2.534,5.912-3.59,1.795,1,10.505,4.434,10.505,4.434l-2.85,6.388" transform="translate(-112.81 -177.902)"/>
      </g>
    </g>
  </g>
  <g id="Group_3866" data-name="Group 3866" transform="translate(0.254 25.99)">
    <g id="Group_3865" data-name="Group 3865">
      <g id="Group_3864" data-name="Group 3864">
        <path id="Path_826" data-name="Path 826" d="M129.986,224.807l11.4-4.119,5.807,1.267L122.911,236.5l-13.09-4.774,11.35-3.907Z" transform="translate(-109.821 -220.689)"/>
        <path id="Path_827" data-name="Path 827" d="M129.986,224.807l11.4-4.119,5.807,1.267L122.911,236.5l-13.09-4.774,11.35-3.907Z" transform="translate(-109.821 -220.689)"/>
      </g>
    </g>
  </g>
  <path id="Path_828" data-name="Path 828" d="M108.689,107.94l6.651-3.088,2.375,4.117s1.188.713,1.98,1.108,4.434,1.031,5.622,2.613a93.274,93.274,0,0,1,4.988,9.185c.317.791-.4.87-2.217,0s-5.78-3.565-6.572-4.673c-1.267-.475-2.3-.4-2.375-.079a4.7,4.7,0,0,0,.633,2.139,27.235,27.235,0,0,1,2.375,3.482,2.221,2.221,0,0,1-1.108,2.455c-1.11-.554-4.592-5.067-5.463-6.1a34.375,34.375,0,0,1-2.772-3.8C112.49,114.67,108.689,107.94,108.689,107.94Z" transform="translate(-108.689 -104.852)"/>
</svg>
