<svg xmlns="http://www.w3.org/2000/svg" width="31.875" height="34" viewBox="0 0 31.875 34">
  <g id="dry" transform="translate(-16 0)">
    <path id="Path_1201" data-name="Path 1201" d="M47.583,8.26,45.592,6.269a1,1,0,0,0-1.411,0L42.19,8.26A1,1,0,1,0,43.6,9.669l.292-.292v1.58A2.992,2.992,0,0,1,40.9,13.945a4.973,4.973,0,0,0-1.02.107,5.071,5.071,0,0,0-3.96,4.874v1.992a1,1,0,1,1-1.992,0V18.926A6.96,6.96,0,0,1,38.7,12.342L36.67,9.629A4.974,4.974,0,0,0,39.906,4.98V3.4l.292.292a1,1,0,0,0,1.409-1.409L39.616.293a1,1,0,0,0-1.411,0L36.214,2.284a1,1,0,0,0,1.409,1.409l.292-.292V4.98a2.992,2.992,0,0,1-2.988,2.988,4.985,4.985,0,0,0-4.98,4.98v1.992a1,1,0,1,1-1.992,0V12.949A6.961,6.961,0,0,1,34,6.07L29.747.376a1.033,1.033,0,0,0-1.6,0L18.584,13.155A12.835,12.835,0,0,0,16,20.918a12.95,12.95,0,1,0,25.9,0,12.608,12.608,0,0,0-1.043-4.976c.016,0,.031,0,.047,0a4.985,4.985,0,0,0,4.98-4.98V9.377l.292.292A1,1,0,1,0,47.583,8.26Z" transform="translate(0 0)" fill="#fff"/>
  </g>
</svg>
