<svg xmlns="http://www.w3.org/2000/svg" width="33.785" height="35" viewBox="0 0 33.785 35">
  <g id="Group_4043" data-name="Group 4043" transform="translate(47.109 1166.977)">
    <path id="Path_1051" data-name="Path 1051" d="M36.246-962.783a19.011,19.011,0,0,0-.239-2.3,13.467,13.467,0,0,0-1.724-4.611,13.607,13.607,0,0,0-5.693-5.271,13.317,13.317,0,0,0-5.411-1.4c-.658-.029-1.314-.023-1.971-.036a.336.336,0,0,1-.185-.038h1.157a14.194,14.194,0,0,0,5.621-1.074,13.724,13.724,0,0,0,3.865-2.456,13.762,13.762,0,0,0,2.087-2.357,13.576,13.576,0,0,0,2.153-4.926,15.6,15.6,0,0,0,.317-2.65.386.386,0,0,1,.022-.122c.087.556.081,1.119.16,1.675a13.729,13.729,0,0,0,1.609,4.834,13.952,13.952,0,0,0,2.1,2.846,13.591,13.591,0,0,0,4.31,3.031,13.626,13.626,0,0,0,4.348,1.129c.45.042.9.055,1.356.067.415.011.831,0,1.247.04-.1,0-.207,0-.311,0a18.476,18.476,0,0,0-3.664.261,13.5,13.5,0,0,0-4.976,2.035,13.544,13.544,0,0,0-3.7,3.626,13.579,13.579,0,0,0-2.325,6.058C36.328-963.879,36.343-963.33,36.246-962.783Z" transform="translate(-65.147 -169.194)" fill="#fff" fill-rule="evenodd"/>
    <path id="Path_1052" data-name="Path 1052" d="M-47.109-1024.984a5.129,5.129,0,0,0,5.065-5.052,4.62,4.62,0,0,0,1.447,3.544,5.423,5.423,0,0,0,3.525,1.5c-3.068.439-4.889,2.037-4.99,4.878C-42.2-1022.951-44-1024.591-47.109-1024.984Z" transform="translate(0 -130.937)" fill="#fff" fill-rule="evenodd"/>
    <path id="Path_1053" data-name="Path 1053" d="M468.091-1147.456c.3,2.273,1.44,3.663,3.68,3.841-2.254.164-3.387,1.568-3.679,3.848-.32-2.323-1.478-3.742-3.784-3.846C466.592-1143.727,467.766-1145.13,468.091-1147.456Z" transform="translate(-488.995 -18.665)" fill="#fff" fill-rule="evenodd"/>
    <path id="Path_1054" data-name="Path 1054" d="M62.219-589.945a2.246,2.246,0,0,0-.714-1.417,2.679,2.679,0,0,0-1.461-.633,2.359,2.359,0,0,0,2.181-2.048A2.345,2.345,0,0,0,64.44-592,2.346,2.346,0,0,0,62.219-589.945Z" transform="translate(-102.454 -547.816)" fill="#fff" fill-rule="evenodd"/>
    <path id="Path_1055" data-name="Path 1055" d="M647.991-879.634a1.854,1.854,0,0,0-1.79,1.551,1.838,1.838,0,0,0-.555-1.049,2.194,2.194,0,0,0-1.117-.5,2.224,2.224,0,0,0,1.091-.473,1.766,1.766,0,0,0,.578-1.07,1.991,1.991,0,0,0,.621,1.089A2.229,2.229,0,0,0,647.991-879.634Z" transform="translate(-661.315 -273.271)" fill="#fff" fill-rule="evenodd"/>
    <path id="Path_1056" data-name="Path 1056" d="M155.049-1165.41a1.87,1.87,0,0,0,1.7-1.568,1.82,1.82,0,0,0,1.688,1.556,1.759,1.759,0,0,0-1.674,1.708A1.815,1.815,0,0,0,155.049-1165.41Z" transform="translate(-193.295)" fill="#fff" fill-rule="evenodd"/>
    <path id="Path_1057" data-name="Path 1057" d="M577.014-487.28a1.457,1.457,0,0,0,1.332-1.289,1.491,1.491,0,0,0,1.329,1.284,1.494,1.494,0,0,0-1.326,1.363A1.465,1.465,0,0,0,577.014-487.28Z" transform="translate(-596.76 -648.666)" fill="#fff" fill-rule="evenodd"/>
  </g>
</svg>
