<svg id="expired" xmlns="http://www.w3.org/2000/svg" width="32" height="32" viewBox="0 0 32 32">
  <path id="Path_1029" data-name="Path 1029" d="M279.5,272a7.5,7.5,0,1,0,7.5,7.5A7.5,7.5,0,0,0,279.5,272Zm2.812,8.438H279.5a.937.937,0,0,1-.938-.937v-2.813a.938.938,0,0,1,1.875,0v1.875h1.875a.938.938,0,0,1,0,1.875Z" transform="translate(-255 -255)"/>
  <path id="Path_1030" data-name="Path 1030" d="M14.641,1.462a2.79,2.79,0,0,0-4.9,0L.367,18.322A2.722,2.722,0,0,0,0,19.688,2.816,2.816,0,0,0,2.812,22.5H15.189A9.393,9.393,0,0,1,22.3,15.25ZM12.187,16.875a.937.937,0,1,1,.938-.937A.938.938,0,0,1,12.187,16.875Zm.938-4.687a.938.938,0,0,1-1.875,0V8.438a.938.938,0,0,1,1.875,0Z" transform="translate(0)"/>
</svg>
