<svg xmlns="http://www.w3.org/2000/svg" width="41.501" height="27.989" viewBox="0 0 41.501 27.989">
  <g id="Layer_2" data-name="Layer 2" transform="translate(-1.25 -4.75)">
    <path id="Path_976" data-name="Path 976" d="M22.245,4.75A13.995,13.995,0,1,0,36.239,18.745,13.995,13.995,0,0,0,22.245,4.75Zm4.4,18.4a1.448,1.448,0,0,1-2.046,0l-3.32-3.378a1.448,1.448,0,0,1-.425-1.023V12.954a1.448,1.448,0,0,1,2.9,0v5.193L26.7,21.1a1.448,1.448,0,0,1-.058,2.046Z" transform="translate(6.512)" fill="#fff"/>
    <path id="Path_977" data-name="Path 977" d="M11.384,14.145H2.7a1.448,1.448,0,0,1,0-2.9h8.686a1.448,1.448,0,0,1,0,2.9Z" transform="translate(0 6.047)" fill="#fff"/>
    <path id="Path_978" data-name="Path 978" d="M10.523,10.145H5.7a1.448,1.448,0,0,1,0-2.9h4.826a1.448,1.448,0,0,1,0,2.9Z" transform="translate(2.791 2.326)" fill="#fff"/>
    <path id="Path_979" data-name="Path 979" d="M10.523,18.145H5.7a1.448,1.448,0,1,1,0-2.9h4.826a1.448,1.448,0,1,1,0,2.9Z" transform="translate(2.791 9.768)" fill="#fff"/>
  </g>
</svg>
