<svg xmlns="http://www.w3.org/2000/svg" width="36.947" height="28" viewBox="0 0 36.947 28">
  <path id="flexible" d="M12.944,23.455A20.64,20.64,0,0,1,21.92,21.5a22.853,22.853,0,0,1,8.352,1.6,10.367,10.367,0,0,1,3.074,1.859,3.692,3.692,0,0,1,1.331,2.667v6.793a.663.663,0,0,1-1.325,0V30.317a8.651,8.651,0,0,1-2.566,1.511,19.958,19.958,0,0,1-7.043,1.27h-.018a29.912,29.912,0,0,1-5.6-.406,7.86,7.86,0,0,1-2.789-1.034l-.043-.029v1.3a.663.663,0,0,1-1.325,0V29.287A2.565,2.565,0,0,1,15.314,27.1a8,8,0,0,1,2.66-.944,26.117,26.117,0,0,1,5.156-.372A1.3,1.3,0,0,1,24.405,27.1v3.349a.663.663,0,0,1-1.325,0V27.112a24.772,24.772,0,0,0-4.85.348,6.735,6.735,0,0,0-2.21.765,1.257,1.257,0,0,0-.727,1.062,1.485,1.485,0,0,0,.781,1.269,6.59,6.59,0,0,0,2.311.835,28.763,28.763,0,0,0,5.358.381,18.643,18.643,0,0,0,6.55-1.174,7.08,7.08,0,0,0,2.279-1.365,2.22,2.22,0,0,0,.781-1.6,2.392,2.392,0,0,0-.911-1.7,9.075,9.075,0,0,0-2.678-1.6,21.533,21.533,0,0,0-7.843-1.5,19.325,19.325,0,0,0-8.379,1.814c-2.312,1.166-3.687,2.751-3.715,4.59a6.927,6.927,0,0,0,3.506,4.624,11.482,11.482,0,0,0,5.606,1.564H44.121a1.325,1.325,0,0,1,1.325,1.325V48.175A1.326,1.326,0,0,1,44.121,49.5H39.37V43.523a.663.663,0,1,0-1.325,0V49.5H33.058V43.523a.663.663,0,1,0-1.325,0V49.5H26.747V43.523a.663.663,0,1,0-1.325,0V49.5H20.435V43.523a.663.663,0,1,0-1.325,0V49.5h-.216a15.15,15.15,0,0,1-4.77-1.288V41.7a.663.663,0,0,0-1.325,0v5.842a9.163,9.163,0,0,1-4.215-4.49,1.294,1.294,0,0,1-.084-.461v-13.3c0-2.61,1.934-4.566,4.444-5.831Z" transform="translate(-8.5 -21.5)"/>
</svg>
