<svg xmlns="http://www.w3.org/2000/svg" width="34.663" height="38.67" viewBox="0 0 34.663 38.67">
  <g id="Group_4039" data-name="Group 4039" transform="translate(-188.353 -1545.239)">
    <path id="Path_1026" data-name="Path 1026" d="M188.358,1626.467c0-1.185-.018-2.37.016-3.554a1.112,1.112,0,0,1,.349-.647c.559-.572,1.151-1.112,1.731-1.664l-.075-.192H188.4v-4.556h34.609v2.642c0,1.633.009,3.267-.008,4.9a1.274,1.274,0,0,1-.2.79c-1.187,1.261-2.411,2.489-3.59,3.692-.736-.724-1.392-1.368-2.148-2.113l5.432-5.324c-1.3-.106-2.269-.186-3.18.812-1.9,2.086-3.965,4.023-5.964,6.019-.2.2-.409.389-.586.557-.677-.67-1.33-1.317-2.074-2.054l5.44-5.327c-1.317-.118-2.281-.2-3.2.8-2.1,2.287-4.356,4.432-6.533,6.621-.687-.7-1.328-1.36-2.032-2.083l5.282-5.156c-.05-.075-.1-.151-.147-.227-.992.014-1.938-.227-2.834.733-2.153,2.313-4.439,4.5-6.629,6.7-.7-.693-1.369-1.353-2.109-2.086,1.725-1.692,3.5-3.429,5.272-5.166-.026-.061-.055-.122-.083-.185-.944.064-1.875-.275-2.757.666-2.2,2.343-4.511,4.576-6.777,6.853l-2.09-2.147,5.477-5.347c-1.319-.066-2.3-.181-3.2.84-1.642,1.86-3.462,3.56-5.208,5.328Z" transform="translate(0 -44.003)" fill-rule="evenodd"/>
    <path id="Path_1027" data-name="Path 1027" d="M208.167,1545.239h4.6c-.053,6.014-1.485,11.517-5.62,16.031-4.932,5.388-11.332,7.528-18.512,8.17v-4.63c.745-.094,1.56-.166,2.364-.3,4.982-.826,9.46-2.661,12.872-6.561a17.428,17.428,0,0,0,4.093-9.883C208.063,1547.144,208.1,1546.217,208.167,1545.239Z" transform="translate(-0.175)" fill-rule="evenodd"/>
    <path id="Path_1028" data-name="Path 1028" d="M257.161,1584.981c-1.7-.819-3.327-1.6-5.1-2.453l2.219-.824c-.779-2.224-1.546-4.412-2.334-6.657l-2.226.819c.858-1.8,1.636-3.427,2.446-5.121l5.1,2.439-2.225.836,2.321,6.6c.741-.242,1.414-.464,2.255-.741Z" transform="translate(-38.241 -15.893)" fill-rule="evenodd"/>
  </g>
</svg>
