<svg xmlns="http://www.w3.org/2000/svg" xmlns:xlink="http://www.w3.org/1999/xlink" width="387.975" height="68.895" viewBox="0 0 387.975 68.895">
  <defs>
    <linearGradient id="linear-gradient" x1="1" y1="0.5" x2="0" y2="0.5" gradientUnits="objectBoundingBox">
      <stop offset="0" stop-color="#d31214"/>
      <stop offset="0.25" stop-color="#d31214"/>
      <stop offset="0.5" stop-color="#8b1153"/>
      <stop offset="0.75" stop-color="#152487"/>
      <stop offset="1" stop-color="#152487"/>
    </linearGradient>
  </defs>
  <g id="Group_3735" data-name="Group 3735" transform="translate(-39.233 -375.109)">
    <path id="Path_804" data-name="Path 804" d="M452.263,444h13.275a7.529,7.529,0,0,0,7.52-7.194l2.334-53.85a7.526,7.526,0,0,0-7.521-7.851H454.388a7.525,7.525,0,0,0-5.819,2.748l-2.76,3.362a7.508,7.508,0,0,1-5.457,2.738l-198.18,9.38a7.525,7.525,0,0,0-7.155,7.026l-2,30.667a7.52,7.52,0,0,0,7.787,8.01l196.369-7.375a7.513,7.513,0,0,1,7.688,6.17,7.523,7.523,0,0,0,7.4,6.169" transform="translate(-48.19 0)" fill-rule="evenodd" fill="url(#linear-gradient)"/>
    <path id="Path_805" data-name="Path 805" d="M247.528,406.753a.693.693,0,0,1,.7-.782l10.837-.385c4.648-.162,7.961,3.822,8.1,7.945.143,4.065-2.808,8.223-7.4,8.386l-5.177.177.288,8.028a.677.677,0,0,1-.748.767l-5.019.174a.643.643,0,0,1-.745-.711Zm6.674,4.38.2,5.631,3.644-.128a2.658,2.658,0,0,0,2.488-2.908,2.707,2.707,0,0,0-2.685-2.723Zm38.577,17.632a.669.669,0,0,1-.732.786l-3.851.134c-.708.025-1.1-1.053-1.31-1.558l-.248-.588a7.955,7.955,0,0,1-5.735,2.76,11.079,11.079,0,0,1-.781-22.139,7.79,7.79,0,0,1,6.243,2.63l.6-1.888c.178-.554.238-.763.731-.782l3.589-.123a.664.664,0,0,1,.787.727Zm-12.158-14.9a5.132,5.132,0,0,0-4.861,5.512A5.078,5.078,0,0,0,281,424.528a5.338,5.338,0,0,0-.376-10.664ZM317,408.3c.391-.42.1-1.216-.765-1.187l-4.994.178a1.448,1.448,0,0,0-1.3.589l-5.85,7.045-.46-12.933a.64.64,0,0,0-.742-.7l-5,.178a.643.643,0,0,0-.693.747l.929,26.4a.647.647,0,0,0,.747.7l5-.178a.643.643,0,0,0,.693-.747l-.207-5.877,1.9-2.113,5.947,7.7c.387.528.623.716,1.119.7l5.6-.2c.633-.025.98-.653.479-1.306l-9.274-11.214Zm24.537-.862c.391-.424.1-1.221-.76-1.192l-5,.178a1.461,1.461,0,0,0-1.3.589l-5.848,7.045-.456-12.934a.639.639,0,0,0-.741-.7l-5,.178a.638.638,0,0,0-.692.746l.929,26.4a.647.647,0,0,0,.747.7l5-.178a.641.641,0,0,0,.691-.747l-.207-5.879,1.9-2.105,5.947,7.7c.387.534.624.722,1.119.7l5.6-.2c.634-.024.98-.654.48-1.306l-9.276-11.212Zm27.1,18.652a.666.666,0,0,1-.727.787l-3.851.133c-.7.026-1.1-1.052-1.31-1.557l-.247-.588a7.956,7.956,0,0,1-5.736,2.754,11.079,11.079,0,0,1-.781-22.139,7.806,7.806,0,0,1,6.245,2.64l.6-1.894c.172-.554.232-.761.722-.781l3.595-.123a.657.657,0,0,1,.781.727Zm-12.153-14.9a5.129,5.129,0,0,0-4.859,5.513,5.077,5.077,0,0,0,5.234,5.152,5.339,5.339,0,0,0-.376-10.665Zm40.245,13.87a.7.7,0,0,0,.827.767l4.923-.174a.738.738,0,0,0,.773-.825l-.352-9.909c-.222-6.327-1.883-11.2-8.548-10.964a8.125,8.125,0,0,0-5.266,2.689l-.277-7.762a.753.753,0,0,0-.826-.771l-4.929.172a.724.724,0,0,0-.767.826l.935,26.426a.71.71,0,0,0,.826.773l4.929-.174a.739.739,0,0,0,.77-.829l-.389-10.918c-.1-2.764,1.393-4.252,3.376-4.321,2.007-.074,3.514,1.524,3.618,4.43Zm32-1.1a.669.669,0,0,1-.732.792l-3.881.133c-.711.029-1.108-1.058-1.32-1.566l-.248-.594a7.994,7.994,0,0,1-5.78,2.779,11.158,11.158,0,0,1-.786-22.3,7.835,7.835,0,0,1,6.284,2.655l.609-1.9c.177-.553.242-.771.737-.792l3.619-.128a.669.669,0,0,1,.786.736Zm-12.242-15.006a5.384,5.384,0,0,0,.382,10.744,5.379,5.379,0,0,0-.382-10.744Zm15.938-13.192a1.265,1.265,0,0,1,1.355-1.473l3.9-.138c.926-.029,1.3.5,1.331,1.375l.113,3.228c.029.974-.406,1.252-1.237,1.281l-3.9.138c-.831.03-1.41-.2-1.44-1.171Zm.3,7.826a.728.728,0,0,1,.717-.771l5.052-.173a.717.717,0,0,1,.771.712l.712,20.226a.661.661,0,0,1-.716.771l-5.054.178a.655.655,0,0,1-.766-.722Zm-185.194,3.167a.693.693,0,0,1,.7-.782l10.837-.385c4.648-.162,7.961,3.822,8.1,7.945.143,4.065-2.808,8.223-7.4,8.386l-5.177.177.288,8.028a.677.677,0,0,1-.748.767l-5.019.174a.643.643,0,0,1-.745-.711Zm6.674,4.38.2,5.631,3.644-.128a2.658,2.658,0,0,0,2.488-2.908,2.707,2.707,0,0,0-2.685-2.723Zm38.577,17.632a.669.669,0,0,1-.732.786l-3.851.134c-.708.025-1.1-1.053-1.31-1.558l-.248-.588a7.955,7.955,0,0,1-5.735,2.76,11.079,11.079,0,0,1-.781-22.139,7.79,7.79,0,0,1,6.243,2.63l.6-1.888c.178-.554.238-.763.731-.782l3.589-.123a.664.664,0,0,1,.787.727Zm-12.158-14.9a5.132,5.132,0,0,0-4.861,5.512A5.078,5.078,0,0,0,281,424.528a5.338,5.338,0,0,0-.376-10.664ZM317,408.3c.391-.42.1-1.216-.765-1.187l-4.994.178a1.448,1.448,0,0,0-1.3.589l-5.85,7.045-.46-12.933a.64.64,0,0,0-.742-.7l-5,.178a.643.643,0,0,0-.693.747l.929,26.4a.647.647,0,0,0,.747.7l5-.178a.643.643,0,0,0,.693-.747l-.207-5.877,1.9-2.113,5.947,7.7c.387.528.623.716,1.119.7l5.6-.2c.633-.025.98-.653.479-1.306l-9.274-11.214Zm51.64,17.79a.666.666,0,0,1-.727.787l-3.851.133c-.7.026-1.1-1.052-1.31-1.557l-.247-.588a7.956,7.956,0,0,1-5.736,2.754,11.079,11.079,0,0,1-.781-22.139,7.806,7.806,0,0,1,6.245,2.64l.6-1.894c.172-.554.232-.761.722-.781l3.595-.123a.657.657,0,0,1,.781.727Zm-12.153-14.9a5.129,5.129,0,0,0-4.859,5.513,5.077,5.077,0,0,0,5.234,5.152,5.339,5.339,0,0,0-.376-10.665Zm40.245,13.87a.7.7,0,0,0,.827.767l4.923-.174a.738.738,0,0,0,.773-.825l-.352-9.909c-.222-6.327-1.883-11.2-8.548-10.964a8.125,8.125,0,0,0-5.266,2.689l-.277-7.762a.753.753,0,0,0-.826-.771l-4.929.172a.724.724,0,0,0-.767.826l.935,26.426a.71.71,0,0,0,.826.773l4.929-.174a.739.739,0,0,0,.77-.829l-.389-10.918c-.1-2.764,1.393-4.252,3.376-4.321,2.007-.074,3.514,1.524,3.618,4.43Zm32-1.1a.669.669,0,0,1-.732.792l-3.881.133c-.711.029-1.108-1.058-1.32-1.566l-.248-.594a7.994,7.994,0,0,1-5.78,2.779,11.158,11.158,0,0,1-.786-22.3,7.835,7.835,0,0,1,6.284,2.655l.609-1.9c.177-.553.242-.771.737-.792l3.619-.128a.669.669,0,0,1,.786.736Zm-12.242-15.006a5.384,5.384,0,0,0,.382,10.744,5.379,5.379,0,0,0-.382-10.744Zm15.938-13.192a1.265,1.265,0,0,1,1.355-1.473l3.9-.138c.926-.029,1.3.5,1.331,1.375l.113,3.228c.029.974-.406,1.252-1.237,1.281l-3.9.138c-.831.03-1.41-.2-1.44-1.171Zm.3,7.826a.728.728,0,0,1,.717-.771l5.052-.173a.717.717,0,0,1,.771.712l.712,20.226a.661.661,0,0,1-.716.771l-5.054.178a.655.655,0,0,1-.766-.722Zm21.97,23.917a1.353,1.353,0,0,1,1.413-1.449l7.832.248a1.408,1.408,0,0,1,1.385,1.444l-.246,7.89a1.372,1.372,0,0,1-1.475,1.325l-7.832-.246a1.381,1.381,0,0,1-1.324-1.415Zm1.216-38.594a1.168,1.168,0,0,1,1.379-1.266l7.986.257a1.154,1.154,0,0,1,1.265,1.346l-.974,30.857a1.158,1.158,0,0,1-1.35,1.264l-7.984-.252a1.168,1.168,0,0,1-1.3-1.35ZM454.692,427.5a1.353,1.353,0,0,1,1.413-1.449l7.832.248a1.408,1.408,0,0,1,1.385,1.444l-.246,7.89a1.372,1.372,0,0,1-1.475,1.325l-7.832-.246a1.381,1.381,0,0,1-1.324-1.415Zm1.216-38.594a1.168,1.168,0,0,1,1.379-1.266l7.986.257a1.154,1.154,0,0,1,1.265,1.346l-.974,30.857a1.158,1.158,0,0,1-1.35,1.264l-7.984-.252a1.168,1.168,0,0,1-1.3-1.35Z" transform="translate(-51.803 -3.117)" fill="#fff"/>
    <path id="Path_806" data-name="Path 806" d="M39.233,407.42H46.5v5.167H39.233Zm.147,6.977h6.972v19.958H39.38Zm8.7,17.414a15.987,15.987,0,0,0,9.408,2.986c4.871,0,8.152-2.284,8.152-6.675v-.079c0-3.871-3.134-5.236-7.084-6.342-2.068-.628-3.243-.995-3.243-1.766v-.078c0-.589.548-.994,1.621-.994a13.059,13.059,0,0,1,5.9,1.884l2.4-4.43a15.574,15.574,0,0,0-8.227-2.325c-4.613,0-8.005,2.359-8.005,6.6v.075c0,3.989,3.135,5.315,7.08,6.349,2.107.588,3.249.925,3.249,1.735v.074c0,.7-.594,1.064-1.809,1.064A12.851,12.851,0,0,1,50.7,427.6l-2.62,4.208m19.684,2.542h7.011v-4.721l1.8-2.106,3.986,6.827h7.747l-7.119-11.989,6.935-7.97H80.2l-5.424,6.68V407.422H67.764Zm20.164-5.713v-.08c0-4.168,3.135-6.269,7.821-6.269a14.177,14.177,0,0,1,4.792.776v-.337c0-2.1-1.285-3.283-3.98-3.283a15.11,15.11,0,0,0-5.533,1.108l-1.438-4.905a19.988,19.988,0,0,1,8.074-1.553c3.583,0,6.016.85,7.6,2.439,1.518,1.473,2.146,3.539,2.146,6.348v11.471h-6.9v-2.107A7.7,7.7,0,0,1,94.6,434.8c-3.8,0-6.675-2.22-6.675-6.159m12.692-1.518V426.2a7.787,7.787,0,0,0-2.768-.515c-2.032,0-3.21.959-3.21,2.473v.079a2.2,2.2,0,0,0,2.472,2.171A3.219,3.219,0,0,0,100.619,427.121Zm16.24,12.99v-4.654a7.406,7.406,0,0,0,.926.08c1.364,0,2.106-.628,2.106-2.37V414.4h6.971v19.074c0,5.052-2.586,6.9-7.085,6.9a16.494,16.494,0,0,1-2.918-.255m2.877-32.691h7.268v5.167h-7.268Zm9.586,17.045v-.074c0-5.682,4.648-10.437,11.031-10.437s10.99,4.682,10.99,10.366v.071c0,5.685-4.642,10.442-11.064,10.442-6.343,0-10.957-4.688-10.957-10.369m15.239,0v-.074a4.369,4.369,0,0,0-4.282-4.539,4.193,4.193,0,0,0-4.168,4.469v.071a4.328,4.328,0,0,0,4.243,4.5A4.213,4.213,0,0,0,144.561,424.466Zm8.24,0v-.074c0-6.492,4.094-10.437,8.816-10.437a7.482,7.482,0,0,1,6.092,2.878V407.42h7.01v26.936h-7.01V431.7a7.34,7.34,0,0,1-6.052,3.1c-4.762,0-8.856-3.945-8.856-10.329m15.051-.074v-.074a4.116,4.116,0,1,0-8.188,0v.074a4.116,4.116,0,1,0,8.188,0Z" transform="translate(0 -8.036)" fill="#fff"/>
  </g>
</svg>
