<svg xmlns="http://www.w3.org/2000/svg" width="17.964" height="18" viewBox="0 0 17.964 18">
  <path id="Icon_feather-phone" data-name="Icon feather-phone" d="M21.132,16.476v2.71a1.806,1.806,0,0,1-1.969,1.806,17.875,17.875,0,0,1-7.795-2.773A17.613,17.613,0,0,1,5.948,12.8,17.875,17.875,0,0,1,3.175,4.969,1.806,1.806,0,0,1,4.973,3h2.71A1.806,1.806,0,0,1,9.489,4.554a11.6,11.6,0,0,0,.632,2.538A1.806,1.806,0,0,1,9.715,9L8.568,10.145a14.452,14.452,0,0,0,5.419,5.419l1.147-1.147a1.806,1.806,0,0,1,1.906-.406,11.6,11.6,0,0,0,2.538.632,1.806,1.806,0,0,1,1.554,1.834Z" transform="translate(-3.168 -3)" fill="#fff"/>
</svg>
