<svg xmlns="http://www.w3.org/2000/svg" width="28.841" height="27.841" viewBox="0 0 28.841 27.841">
  <path id="Icon_awesome-clock" data-name="Icon awesome-clock" d="M14.983.563A14.175,14.175,0,0,0,.563,14.483,14.175,14.175,0,0,0,14.983,28.4,14.175,14.175,0,0,0,29.4,14.483,14.175,14.175,0,0,0,14.983.563ZM18.3,20.214l-5.129-3.6a.671.671,0,0,1-.285-.544V6.625a.688.688,0,0,1,.7-.674h2.791a.688.688,0,0,1,.7.674v7.729l3.692,2.593a.658.658,0,0,1,.151.943l-1.64,2.178A.719.719,0,0,1,18.3,20.214Z" transform="translate(-0.563 -0.562)" fill="#fff"/>
</svg>
