<svg xmlns="http://www.w3.org/2000/svg" width="56" height="56" viewBox="0 0 56 56">
  <g id="Group_909" data-name="Group 909" transform="translate(-0.385 0)">
    <rect id="Rectangle_33" data-name="Rectangle 33" width="56" height="56" rx="3" transform="translate(0.385 0)" opacity="0.14"/>
    <path id="Path_673" data-name="Path 673" d="M425.618,88.5a4.466,4.466,0,1,0,4.465,4.466A4.477,4.477,0,0,0,425.618,88.5Zm13.391,4.466c0-1.851.016-3.682-.089-5.527a7.406,7.406,0,0,0-7.77-7.771c-1.851-.1-3.682-.088-5.528-.088s-3.681-.016-5.527.088a7.4,7.4,0,0,0-7.77,7.771c-.1,1.851-.089,3.681-.089,5.527s-.016,3.682.089,5.527a7.406,7.406,0,0,0,7.77,7.771c1.851.1,3.682.088,5.527.088s3.682.016,5.528-.088a7.407,7.407,0,0,0,7.77-7.771C439.03,96.651,439.009,94.821,439.009,92.97ZM425.618,99.84a6.871,6.871,0,1,1,6.871-6.871A6.862,6.862,0,0,1,425.618,99.84Zm7.154-12.419a1.605,1.605,0,1,1,1.6-1.606,1.6,1.6,0,0,1-1.6,1.606Z" transform="translate(-395.57 -64.504)" fill="#a065a0"/>
  </g>
</svg>
