<svg xmlns="http://www.w3.org/2000/svg" width="17.212" height="17.211" viewBox="0 0 17.212 17.211">
  <path id="Path_700" data-name="Path 700" d="M420.839,85.318a2.871,2.871,0,1,0,2.87,2.871A2.878,2.878,0,0,0,420.839,85.318Zm8.609,2.871c0-1.19.01-2.367-.057-3.553a4.761,4.761,0,0,0-4.995-5c-1.19-.067-2.367-.057-3.553-.057s-2.366-.01-3.553.057a4.76,4.76,0,0,0-4.995,5c-.067,1.19-.057,2.366-.057,3.553s-.01,2.367.057,3.553a4.761,4.761,0,0,0,4.995,5c1.19.067,2.367.057,3.553.057s2.367.01,3.553-.057a4.762,4.762,0,0,0,4.995-5C429.461,90.555,429.447,89.379,429.447,88.189Zm-8.609,4.417a4.417,4.417,0,1,1,4.417-4.417A4.411,4.411,0,0,1,420.839,92.606Zm4.6-7.983a1.032,1.032,0,1,1,1.032-1.032,1.03,1.03,0,0,1-1.032,1.032Z" transform="translate(-412.236 -79.583)" fill="#fff"/>
</svg>
