<svg xmlns="http://www.w3.org/2000/svg" width="10.506" height="10.505" viewBox="0 0 10.506 10.505">
  <path id="Path_673" data-name="Path 673" d="M417.487,83.083a1.752,1.752,0,1,0,1.752,1.752A1.757,1.757,0,0,0,417.487,83.083Zm5.254,1.752c0-.726.006-1.445-.035-2.169a2.906,2.906,0,0,0-3.049-3.049c-.726-.041-1.445-.035-2.169-.035s-1.444-.006-2.169.035a2.905,2.905,0,0,0-3.049,3.049c-.041.726-.035,1.444-.035,2.169s-.006,1.445.035,2.169a2.906,2.906,0,0,0,3.049,3.049c.726.041,1.445.035,2.169.035s1.444.006,2.169-.035A2.906,2.906,0,0,0,422.706,87C422.749,86.28,422.741,85.562,422.741,84.835Zm-5.254,2.7a2.7,2.7,0,1,1,2.7-2.7A2.693,2.693,0,0,1,417.487,87.531Zm2.807-4.873a.63.63,0,1,1,.63-.63.629.629,0,0,1-.63.63Z" transform="translate(-412.236 -79.583)" fill="#a065a0"/>
</svg>
