<svg xmlns="http://www.w3.org/2000/svg" width="36.174" height="32.162" viewBox="0 0 36.174 32.162">
  <path id="Icon_awesome-leaf" data-name="Icon awesome-leaf" d="M34.306.609A.977.977,0,0,0,32.529.534a10.77,10.77,0,0,1-9.415,5.5H18.089A12.062,12.062,0,0,0,6.03,18.089a12.419,12.419,0,0,0,.094,1.288c4.007-2.87,9.792-5.307,17.994-5.307a1,1,0,0,1,0,2.01c-15.79,0-22.485,9.679-23.967,13.315A2.013,2.013,0,0,0,3.876,30.92a16.524,16.524,0,0,1,4.516-5.69,12.032,12.032,0,0,0,10.985,4.849c9.861-.716,16.8-9.559,16.8-20.387A22.84,22.84,0,0,0,34.306.609Z" transform="translate(-0.004 0.002)" fill="#fff"/>
</svg>
