<svg xmlns="http://www.w3.org/2000/svg" width="16.599" height="16.6" viewBox="0 0 16.599 16.6">
  <path id="Path_701" data-name="Path 701" d="M245.525,164.223h-.931a1.145,1.145,0,0,1-1.109-1.037A5.209,5.209,0,0,0,238.117,158H235.4a5.382,5.382,0,0,0-5.4,5.36v5.881a5.378,5.378,0,0,0,5.4,5.358h5.809a5.372,5.372,0,0,0,5.392-5.358v-3.8a1.2,1.2,0,0,0-1.073-1.217Zm-10.339-2.074H238.3a1.037,1.037,0,1,1,0,2.075h-3.113a1.037,1.037,0,0,1,0-2.075Zm6.225,8.3h-6.225a1.038,1.038,0,0,1,0-2.075h6.225a1.037,1.037,0,0,1,0,2.075Z" transform="translate(-229.999 -157.998)" fill="#fff"/>
</svg>
