<svg xmlns="http://www.w3.org/2000/svg" width="32.276" height="26.538" viewBox="0 0 32.276 26.538">
  <path id="Icon_metro-air" data-name="Icon metro-air" d="M7.059,12.289c3.132-2.69,5.607-4.816,12.322-1.022a16.379,16.379,0,0,0,7.992,2.507c3.792,0,6.251-2.109,8.375-3.932a1.859,1.859,0,0,0,.219-2.58,1.769,1.769,0,0,0-2.528-.224c-3.131,2.693-5.607,4.82-12.322,1.022C12.245,3.051,8.089,6.62,4.75,9.489a1.86,1.86,0,0,0-.217,2.58,1.768,1.768,0,0,0,2.526.221Zm26.38,3.905c-3.131,2.69-5.607,4.82-12.322,1.022C12.245,12.205,8.089,15.775,4.75,18.642a1.859,1.859,0,0,0-.217,2.58,1.767,1.767,0,0,0,2.526.224c3.132-2.691,5.607-4.818,12.322-1.026a16.39,16.39,0,0,0,7.992,2.51c3.792,0,6.251-2.109,8.375-3.936a1.857,1.857,0,0,0,.219-2.578,1.768,1.768,0,0,0-2.528-.222Zm0,9.155c-3.131,2.693-5.607,4.82-12.322,1.026C12.245,21.364,8.089,24.932,4.75,27.8a1.859,1.859,0,0,0-.217,2.58,1.767,1.767,0,0,0,2.526.221c3.132-2.69,5.607-4.814,12.322-1.022a16.428,16.428,0,0,0,7.992,2.51c3.792,0,6.251-2.112,8.375-3.936a1.859,1.859,0,0,0,.219-2.58,1.771,1.771,0,0,0-2.528-.224Z" transform="translate(-4.112 -5.552)" fill="#fff"/>
</svg>
