<svg xmlns="http://www.w3.org/2000/svg" xmlns:xlink="http://www.w3.org/1999/xlink" width="63" height="63" viewBox="0 0 63 63">
  <defs>
    <filter id="Ellipse_8" x="0" y="0" width="63" height="63" filterUnits="userSpaceOnUse">
      <feOffset dy="3" input="SourceAlpha"/>
      <feGaussianBlur stdDeviation="3" result="blur"/>
      <feFlood flood-opacity="0.161"/>
      <feComposite operator="in" in2="blur"/>
      <feComposite in="SourceGraphic"/>
    </filter>
  </defs>
  <g id="Group_992" data-name="Group 992" transform="translate(9 -2951.666)">
    <g transform="matrix(1, 0, 0, 1, -9, 2951.67)" filter="url(#Ellipse_8)">
      <circle id="Ellipse_8-2" data-name="Ellipse 8" cx="22.5" cy="22.5" r="22.5" transform="translate(9 6)" fill="#ecab2b"/>
    </g>
    <path id="Icon_material-location-on" data-name="Icon material-location-on" d="M15.706,3A8.2,8.2,0,0,0,7.5,11.206c0,6.154,8.206,15.239,8.206,15.239s8.206-9.085,8.206-15.239A8.2,8.2,0,0,0,15.706,3Zm0,11.136a2.931,2.931,0,1,1,2.931-2.931A2.932,2.932,0,0,1,15.706,14.136Z" transform="translate(6.42 2965.726)" fill="rgba(0,0,0,0)" stroke="#fff" stroke-width="1"/>
  </g>
</svg>
