<svg xmlns="http://www.w3.org/2000/svg" width="21" height="20" viewBox="0 0 21 20">
  <g id="noun-bucket-2374592" transform="translate(-105.002 -46.666)">
    <path id="Path_3325" data-name="Path 3325" d="M125.5,50.916a.5.5,0,0,0,.5-.5v-3.25a.5.5,0,0,0-.5-.5h-20a.5.5,0,0,0-.5.5v3.25a.5.5,0,0,0,.5.5h1.045L108,66.213a.5.5,0,0,0,.5.453h14a.5.5,0,0,0,.5-.453l.812-8.53L124.9,58.77h0a.5.5,0,1,0,.707-.707l-1.675-1.673.522-5.475Zm-3.455,14.75h-13.09l-1.405-14.75h9.5l5.85,5.85Zm.97-10.19-4.557-4.56h5Zm-5.557-5.56-1.6-1.6a.5.5,0,0,0-.708.707l.9.895H106v-2.25h19v2.25Z" fill="#fff"/>
  </g>
</svg>
