<svg xmlns="http://www.w3.org/2000/svg" width="34" height="25.999" viewBox="0 0 34 25.999">
  <path id="premium" d="M33.69,12.012,25.878,4.2a1.062,1.062,0,0,0-.743-.311L9.008,3.766a1.062,1.062,0,0,0-.76.311L.312,12.013a1.063,1.063,0,0,0,0,1.5L16.25,29.453a1.061,1.061,0,0,0,1.5,0L33.69,13.516a1.063,1.063,0,0,0,0-1.5Zm-6.163,1.511-7.6,7.674a1.063,1.063,0,1,1-1.511-1.5l6.88-6.946-2.325-2.478a1.063,1.063,0,1,1,1.55-1.455l3.026,3.227a1.063,1.063,0,0,1-.021,1.473Z" transform="translate(-0.001 -3.766)" fill="#fff"/>
</svg>
