<svg xmlns="http://www.w3.org/2000/svg" width="36.405" height="34" viewBox="0 0 36.405 34">
  <g id="Group_4126" data-name="Group 4126" transform="translate(-624.855 -2854.509)">
    <path id="Path_1293" data-name="Path 1293" d="M638.057,2892.031v-.4q0-7.519,0-15.036a.606.606,0,0,1,.241-.553q6.587-5.083,13.161-10.179c.06-.047.122-.09.211-.155q1.134.874,2.263,1.749,5.5,4.261,11.013,8.518a.743.743,0,0,1,.326.667q-.014,7.48-.007,14.959v.434h-7.8c-.041-.3-.07-.613-.127-.92a5.2,5.2,0,0,0-1.368-2.644.964.964,0,0,1-.233-.6c-.013-4.617-.007-9.233-.012-13.85a3.366,3.366,0,0,0-2.34-3.318c-2.86-1.092-5.772.891-5.788,3.223-.019,2.742-.005,5.484-.005,8.227,0,1.9,0,3.8,0,5.7a.827.827,0,0,1-.251.64,4.858,4.858,0,0,0-1.433,3.207c-.006.1-.019.2-.03.327Z" transform="translate(-8.62 -7.315)" fill-rule="evenodd"/>
    <path id="Path_1294" data-name="Path 1294" d="M661.26,2868.517c-.153-.127-12.082-9.352-17.878-13.859-.3-.231-.457-.171-.71.026q-6.463,5.017-12.935,10.021c-1.627,1.259-3.252,2.554-4.881,3.812h2.71l14.916-11.525s.809-.347,1.156,0,14.916,11.525,14.916,11.525Z" fill-rule="evenodd"/>
    <path id="Path_1295" data-name="Path 1295" d="M672.439,2896.086c0,2.242,0,4.482,0,6.724a.625.625,0,0,0,.251.538,3.66,3.66,0,0,1,.918,4.51,3.691,3.691,0,0,1-6.975-1.755,3.566,3.566,0,0,1,1.334-2.759.623.623,0,0,0,.245-.542q-.008-6.669,0-13.34a2.136,2.136,0,0,1,1.61-2.195,2.112,2.112,0,0,1,2.622,2.132C672.448,2891.628,672.439,2893.858,672.439,2896.086Zm-1.6,3.5c0-1.647,0-3.294,0-4.942a.513.513,0,0,0-.53-.576c-.3.009-.483.224-.5.575,0,.106,0,.213,0,.32q0,4.692,0,9.384a.448.448,0,0,1-.265.471,1.528,1.528,0,0,0-.741,1.76,1.567,1.567,0,0,0,3.034,0,1.526,1.526,0,0,0-.74-1.76.45.45,0,0,1-.266-.47C670.84,2902.759,670.837,2901.172,670.836,2899.584Z" transform="translate(-27.282 -21.354)" fill-rule="evenodd"/>
    <path id="Path_1296" data-name="Path 1296" d="M695.123,2859.393h4.47c0,1.279.07,3.969,0,3.9s-.229-.159-.332-.24c-1.3-1-2.594-2.016-3.9-3.011C695.141,2859.871,694.662,2859.393,695.123,2859.393Z" transform="translate(-45.767 -3.19)" fill-rule="evenodd"/>
  </g>
</svg>
