<svg xmlns="http://www.w3.org/2000/svg" width="39.564" height="34" viewBox="0 0 39.564 34">
  <g id="Group_4091" data-name="Group 4091" transform="translate(459.299 -1027.671)">
    <rect id="Rectangle_910" data-name="Rectangle 910" width="6.927" height="2.694" transform="translate(-437.903 1027.671)"/>
    <rect id="Rectangle_911" data-name="Rectangle 911" width="3.272" height="2.694" transform="translate(-436.076 1030.365)"/>
    <g id="Group_4090" data-name="Group 4090" transform="translate(-459.299 1032.261)">
      <path id="Path_1170" data-name="Path 1170" d="M-354.758,1115.458a.839.839,0,0,0-.851.771.867.867,0,0,0,.832.856.826.826,0,0,0,.8-.813A.777.777,0,0,0-354.758,1115.458Z" transform="translate(379.642 -1099.701)" fill-rule="evenodd"/>
      <path id="Path_1171" data-name="Path 1171" d="M-434.44,1047.476a14.662,14.662,0,0,0-10.813,4.742H-459.3v2.184h12.381a14.6,14.6,0,0,0-1.061,2.033h-9.406v2.184h8.677a14.572,14.572,0,0,0-.358,2.031h-6.005v2.184h5.942a14.724,14.724,0,0,0,.233,2.033h-3.4v2.184h3.982a14.59,14.59,0,0,0,.89,2.032h-1.851v2.184H-446a14.672,14.672,0,0,0,11.557,5.618,14.705,14.705,0,0,0,14.7-14.7A14.705,14.705,0,0,0-434.44,1047.476Zm-8.708,14a8.668,8.668,0,0,1,6.919-7.516c3.618-.889,6.689.29,9.316,2.951l-2.121,1.359a7.6,7.6,0,0,0-11.06-.572,8.2,8.2,0,0,0,.256,11.857A8.274,8.274,0,0,1-443.148,1061.479Zm11.127,1.622a1.019,1.019,0,0,0-.512.979,1.864,1.864,0,0,1-1.378,1.8,1.944,1.944,0,0,1-2.156-.858,1.939,1.939,0,0,1,.186-2.223,1.814,1.814,0,0,1,2.252-.468.811.811,0,0,0,.9-.055c1.9-1.068,3.816-2.125,5.725-3.186.15-.083.3-.162.455-.244l.056.083C-428.333,1060.32-430.17,1061.721-432.021,1063.1Z" transform="translate(459.299 -1047.476)" fill-rule="evenodd"/>
    </g>
  </g>
</svg>
