<svg xmlns="http://www.w3.org/2000/svg" width="35.988" height="36" viewBox="0 0 35.988 36">
  <g id="Group_4110" data-name="Group 4110" transform="translate(2635.209 -3553.888)">
    <path id="Path_1218" data-name="Path 1218" d="M-2617.222,3589.889a18,18,0,0,1-17.986-17.8,18,18,0,0,1,18.2-18.2,18.011,18.011,0,0,1,17.791,18.079A18.011,18.011,0,0,1-2617.222,3589.889Zm-10.919-5.874a16.261,16.261,0,0,0,23.121-1.271,16.267,16.267,0,0,0-.069-21.781Zm-1.191-1.183c.033-.031.058-.052.081-.075q2.78-2.787,5.561-5.573c.08-.08.071-.135.023-.225a7.241,7.241,0,0,1-.737-4.807,13.276,13.276,0,0,1,1.107-3.245,45.27,45.27,0,0,1,2.32-4.192,58.625,58.625,0,0,0,3.186-5.751,3.2,3.2,0,0,1,.225-.4c.25-.386.44-.386.678,0,.095.155.176.318.256.481.317.642.6,1.3.953,1.925.969,1.724,1.965,3.433,2.951,5.148.011.019.02.04.01.019l6.41-6.409a16.288,16.288,0,0,0-22.891,1.065A16.3,16.3,0,0,0-2629.332,3582.831Z" transform="translate(0 0)" fill="#fff" fill-rule="evenodd"/>
    <path id="Path_1219" data-name="Path 1219" d="M-2234.391,4007.088l10.544-10.544c.034.066.071.139.106.212a15,15,0,0,1,1.214,3.208,7.213,7.213,0,0,1-4.131,8.2,7.165,7.165,0,0,1-7.613-.975C-2234.314,4007.158-2234.354,4007.12-2234.391,4007.088Z" transform="translate(-387.558 -428.011)" fill="#fff" fill-rule="evenodd"/>
    <path id="Path_1220" data-name="Path 1220" d="M-1934.325,4385.494c0-.187,0-.375,0-.562a.425.425,0,0,1,.439-.454.427.427,0,0,1,.433.461c0,.38,0,.761,0,1.141a.447.447,0,0,1-.433.468.438.438,0,0,1-.438-.46C-1934.329,4385.891-1934.325,4385.692-1934.325,4385.494Z" transform="translate(-677.696 -803.113)" fill="#fff" fill-rule="evenodd"/>
    <path id="Path_1221" data-name="Path 1221" d="M-2009.228,4363.556a1.072,1.072,0,0,1-.147.264c-.264.281-.539.551-.815.82a.455.455,0,0,1-.641.015.46.46,0,0,1,.006-.63q.412-.428.841-.84a.442.442,0,0,1,.507-.085C-2009.306,4363.173-2009.243,4363.321-2009.228,4363.556Z" transform="translate(-603.605 -782.4)" fill="#fff" fill-rule="evenodd"/>
    <path id="Path_1222" data-name="Path 1222" d="M-1882.038,4364.35a.483.483,0,0,1-.264.4.389.389,0,0,1-.464-.046c-.319-.3-.632-.612-.931-.935a.409.409,0,0,1,.054-.58.432.432,0,0,1,.574-.008q.459.438.9.9A1.008,1.008,0,0,1-1882.038,4364.35Z" transform="translate(-726.558 -782.415)" fill="#fff" fill-rule="evenodd"/>
    <path id="Path_1223" data-name="Path 1223" d="M-1881.929,4236.252a1.372,1.372,0,0,1-.16.275c-.277.291-.563.573-.85.854a.412.412,0,0,1-.6.008.412.412,0,0,1-.007-.616c.276-.284.557-.563.84-.841a.421.421,0,0,1,.5-.089A.484.484,0,0,1-1881.929,4236.252Z" transform="translate(-726.663 -659.351)" fill="#fff" fill-rule="evenodd"/>
    <path id="Path_1224" data-name="Path 1224" d="M-1861.4,4312.838c-.2,0-.4,0-.595,0a.425.425,0,0,1-.433-.409.426.426,0,0,1,.408-.453q.627-.016,1.255,0a.419.419,0,0,1,.405.453.418.418,0,0,1-.429.41C-1861,4312.84-1861.2,4312.838-1861.4,4312.838Z" transform="translate(-747.214 -733)" fill="#fff" fill-rule="evenodd"/>
    <path id="Path_1225" data-name="Path 1225" d="M-1835.465,4069.467c-.11,0-.22,0-.331,0a.438.438,0,0,1-.448-.435.429.429,0,0,1,.428-.436c.242-.009.485-.008.727,0a.426.426,0,0,1,.43.433.434.434,0,0,1-.443.438C-1835.222,4069.471-1835.344,4069.467-1835.465,4069.467Z" transform="translate(-772.535 -497.675)" fill="#fff" fill-rule="evenodd"/>
    <path id="Path_1226" data-name="Path 1226" d="M-2168.559,4384.268c0-.121,0-.242,0-.362a.431.431,0,0,1,.4-.422.407.407,0,0,1,.454.361,5.4,5.4,0,0,1,0,.854.4.4,0,0,1-.464.365.431.431,0,0,1-.392-.434C-2168.562,4384.51-2168.559,4384.388-2168.559,4384.268Z" transform="translate(-451.211 -802.15)" fill="#fff" fill-rule="evenodd"/>
    <path id="Path_1227" data-name="Path 1227" d="M-2115.889,4457.6c-.126,0-.253.006-.379,0a.431.431,0,0,1-.418-.426.4.4,0,0,1,.383-.434,5.85,5.85,0,0,1,.822,0,.411.411,0,0,1,.377.441.436.436,0,0,1-.423.422c-.121.006-.242,0-.363,0Z" transform="translate(-501.369 -872.969)" fill="#fff" fill-rule="evenodd"/>
    <path id="Path_1228" data-name="Path 1228" d="M-1710.245,4069.442c-.115,0-.231,0-.346,0a.435.435,0,0,1-.428-.435.424.424,0,0,1,.41-.433c.257-.012.516-.012.774,0a.428.428,0,0,1,.4.439.436.436,0,0,1-.418.428C-1709.981,4069.447-1710.113,4069.443-1710.245,4069.442Z" transform="translate(-893.617 -497.651)" fill="#fff" fill-rule="evenodd"/>
    <path id="Path_1229" data-name="Path 1229" d="M-2241.123,4457.565c-.122,0-.243.006-.364,0a.432.432,0,0,1-.424-.424.414.414,0,0,1,.4-.441,6.336,6.336,0,0,1,.776,0,.422.422,0,0,1,.41.435.441.441,0,0,1-.435.432c-.121.006-.242,0-.364,0Z" transform="translate(-380.288 -872.933)" fill="#fff" fill-rule="evenodd"/>
    <path id="Path_1230" data-name="Path 1230" d="M-2168.566,4509.407c0-.122,0-.243,0-.364a.438.438,0,0,1,.409-.422.4.4,0,0,1,.444.356,5.4,5.4,0,0,1,0,.873.4.4,0,0,1-.443.355.427.427,0,0,1-.41-.417C-2168.571,4509.66-2168.566,4509.533-2168.566,4509.407Z" transform="translate(-451.203 -923.148)" fill="#fff" fill-rule="evenodd"/>
    <path id="Path_1231" data-name="Path 1231" d="M-1813.853,4017.99a1.164,1.164,0,0,1-.252-.141c-.169-.149-.325-.313-.481-.476a.432.432,0,0,1-.011-.633.432.432,0,0,1,.633.019c.168.167.332.337.494.51a.391.391,0,0,1,.081.458A.473.473,0,0,1-1813.853,4017.99Z" transform="translate(-793.336 -447.415)" fill="#fff" fill-rule="evenodd"/>
    <path id="Path_1232" data-name="Path 1232" d="M-1814.829,4106.147a1.114,1.114,0,0,1,.139-.243c.157-.176.329-.34.5-.5a.412.412,0,0,1,.616.01.407.407,0,0,1-.007.6c-.172.178-.347.354-.526.524a.378.378,0,0,1-.444.075A.474.474,0,0,1-1814.829,4106.147Z" transform="translate(-793.241 -533.139)" fill="#fff" fill-rule="evenodd"/>
    <path id="Path_1233" data-name="Path 1233" d="M-1724.5,4017.105a.985.985,0,0,1-.136.26,7.046,7.046,0,0,1-.507.5.43.43,0,0,1-.61-.008.44.44,0,0,1,0-.6c.16-.174.323-.346.494-.51a.436.436,0,0,1,.5-.1C-1724.586,4016.721-1724.512,4016.859-1724.5,4017.105Z" transform="translate(-879.255 -447.412)" fill="#fff" fill-rule="evenodd"/>
    <path id="Path_1234" data-name="Path 1234" d="M-1725.468,4105.314a.892.892,0,0,1,.223.117c.178.155.345.323.512.49a.447.447,0,0,1,.027.636.428.428,0,0,1-.633,0c-.171-.164-.339-.331-.5-.5a.414.414,0,0,1-.075-.476A.436.436,0,0,1-1725.468,4105.314Z" transform="translate(-879.173 -533.184)" fill="#fff" fill-rule="evenodd"/>
    <path id="Path_1235" data-name="Path 1235" d="M-2130.274,4405.268a1.088,1.088,0,0,1-.143.265,7.05,7.05,0,0,1-.507.5.434.434,0,0,1-.611-.011.436.436,0,0,1,0-.6c.16-.175.324-.345.494-.509a.439.439,0,0,1,.5-.094C-2130.361,4404.887-2130.293,4405.03-2130.274,4405.268Z" transform="translate(-486.898 -822.738)" fill="#fff" fill-rule="evenodd"/>
    <path id="Path_1236" data-name="Path 1236" d="M-2219.192,4405.638a.448.448,0,0,1-.252.428.4.4,0,0,1-.464-.053,7.654,7.654,0,0,1-.571-.573.415.415,0,0,1,.043-.581.426.426,0,0,1,.585-.012c.2.185.382.38.561.582A.689.689,0,0,1-2219.192,4405.638Z" transform="translate(-400.914 -822.701)" fill="#fff" fill-rule="evenodd"/>
    <path id="Path_1237" data-name="Path 1237" d="M-2131.235,4493.28a1.089,1.089,0,0,1,.239.131c.178.154.346.323.512.492a.435.435,0,0,1,.023.622.427.427,0,0,1-.632,0c-.172-.163-.338-.331-.5-.5a.415.415,0,0,1-.082-.475A.455.455,0,0,1-2131.235,4493.28Z" transform="translate(-486.836 -908.315)" fill="#fff" fill-rule="evenodd"/>
    <path id="Path_1238" data-name="Path 1238" d="M-2220.125,4494.756a.473.473,0,0,1-.455-.271.378.378,0,0,1,.065-.446c.181-.192.366-.381.561-.56a.406.406,0,0,1,.59.039.407.407,0,0,1,.008.58c-.174.184-.351.365-.539.534A.933.933,0,0,1-2220.125,4494.756Z" transform="translate(-400.869 -908.403)" fill="#fff" fill-rule="evenodd"/>
    <path id="Path_1239" data-name="Path 1239" d="M-1762,4121.306c0,.127.006.253,0,.379a.416.416,0,0,1-.424.4.415.415,0,0,1-.434-.389c-.012-.27-.012-.54,0-.809a.424.424,0,0,1,.439-.386.423.423,0,0,1,.416.392c.009.137,0,.275,0,.413Z" transform="translate(-843.479 -547.868)" fill="#fff" fill-rule="evenodd"/>
    <path id="Path_1240" data-name="Path 1240" d="M-1762.006,3996.187c0,.132.005.265,0,.4a.408.408,0,0,1-.426.393.409.409,0,0,1-.434-.386c-.01-.264-.01-.529,0-.792a.417.417,0,0,1,.435-.387.416.416,0,0,1,.424.4C-1762,3995.934-1762.006,3996.061-1762.006,3996.187Z" transform="translate(-843.477 -426.917)" fill="#fff" fill-rule="evenodd"/>
    <path id="Path_1241" data-name="Path 1241" d="M-2404.066,4138.862a.959.959,0,0,1-.13.235c-.23.25-.47.493-.714.731a.46.46,0,0,1-.627.02.45.45,0,0,1,0-.638c.246-.252.5-.5.754-.738a.374.374,0,0,1,.443-.07A.473.473,0,0,1-2404.066,4138.862Z" transform="translate(-221.946 -565.136)" fill="#fff" fill-rule="evenodd"/>
    <path id="Path_1242" data-name="Path 1242" d="M-2512.985,4247.863a1.438,1.438,0,0,1-.17.3c-.224.242-.461.471-.7.7a.438.438,0,0,1-.634.012.412.412,0,0,1,.019-.614c.228-.238.458-.474.692-.707a.443.443,0,0,1,.5-.1A.486.486,0,0,1-2512.985,4247.863Z" transform="translate(-116.605 -670.592)" fill="#fff" fill-rule="evenodd"/>
    <path id="Path_1243" data-name="Path 1243" d="M-2514.043,4137.7a1.355,1.355,0,0,1,.278.157c.243.223.477.457.71.69a.464.464,0,0,1,.018.666.45.45,0,0,1-.635-.045c-.235-.232-.469-.464-.7-.7a.416.416,0,0,1-.091-.473A.523.523,0,0,1-2514.043,4137.7Z" transform="translate(-116.716 -564.503)" fill="#fff" fill-rule="evenodd"/>
    <path id="Path_1244" data-name="Path 1244" d="M-2448.2,4112.426c0,.166,0,.331,0,.5a.444.444,0,0,1-.44.462.431.431,0,0,1-.426-.455q-.007-.5,0-.992a.429.429,0,0,1,.419-.459.441.441,0,0,1,.448.468C-2448.2,4112.106-2448.2,4112.266-2448.2,4112.426Z" transform="translate(-179.983 -539.145)" fill="#fff" fill-rule="evenodd"/>
    <path id="Path_1245" data-name="Path 1245" d="M-2540.635,4204.854c-.166,0-.331,0-.5,0a.433.433,0,0,1-.442-.438.419.419,0,0,1,.432-.426c.347-.006.695-.007,1.042,0a.422.422,0,0,1,.427.433.436.436,0,0,1-.433.432h-.529Z" transform="translate(-90.538 -628.59)" fill="#fff" fill-rule="evenodd"/>
    <path id="Path_1246" data-name="Path 1246" d="M-2448.2,4266.348c0,.166,0,.331,0,.5a.441.441,0,0,1-.437.448.429.429,0,0,1-.429-.45q-.007-.5,0-1.008a.422.422,0,0,1,.432-.444.433.433,0,0,1,.434.446C-2448.2,4266.006-2448.2,4266.177-2448.2,4266.348Z" transform="translate(-179.978 -687.964)" fill="#fff" fill-rule="evenodd"/>
    <path id="Path_1247" data-name="Path 1247" d="M-2386.737,4204.875c-.171,0-.342,0-.512,0a.432.432,0,0,1-.446-.435.42.42,0,0,1,.444-.431c.336-.005.672,0,1.009,0a.428.428,0,0,1,.448.43.439.439,0,0,1-.447.436C-2386.406,4204.879-2386.571,4204.875-2386.737,4204.875Z" transform="translate(-239.326 -628.61)" fill="#fff" fill-rule="evenodd"/>
    <path id="Path_1248" data-name="Path 1248" d="M-2404.112,4248.483a.428.428,0,0,1-.246.433.4.4,0,0,1-.463-.063q-.4-.376-.771-.77a.431.431,0,0,1,.01-.585.443.443,0,0,1,.6-.025c.269.252.523.519.773.791A.628.628,0,0,1-2404.112,4248.483Z" transform="translate(-221.914 -670.537)" fill="#fff" fill-rule="evenodd"/>
    <path id="Path_1249" data-name="Path 1249" d="M-2371.807,4005.63c-.127,0-.254,0-.38,0a.428.428,0,0,1-.415-.428.4.4,0,0,1,.383-.434,6.852,6.852,0,0,1,.807,0,.407.407,0,0,1,.393.443.434.434,0,0,1-.426.419C-2371.565,4005.634-2371.687,4005.63-2371.807,4005.63Z" transform="translate(-253.92 -435.951)" fill="#fff" fill-rule="evenodd"/>
    <path id="Path_1250" data-name="Path 1250" d="M-2298.559,3932.3c0,.121,0,.242,0,.364a.436.436,0,0,1-.426.421.434.434,0,0,1-.444-.421c-.009-.248-.009-.5,0-.744a.418.418,0,0,1,.451-.406.419.419,0,0,1,.419.423C-2298.555,3932.059-2298.559,3932.18-2298.559,3932.3Z" transform="translate(-324.665 -365.134)" fill="#fff" fill-rule="evenodd"/>
    <path id="Path_1251" data-name="Path 1251" d="M-2349.931,3953.679a.487.487,0,0,1-.266.4.4.4,0,0,1-.464-.05,7.352,7.352,0,0,1-.572-.573.413.413,0,0,1,.039-.582.429.429,0,0,1,.586-.016,7.6,7.6,0,0,1,.546.551A1.068,1.068,0,0,1-2349.931,3953.679Z" transform="translate(-274.483 -385.663)" fill="#fff" fill-rule="evenodd"/>
    <path id="Path_1252" data-name="Path 1252" d="M-2350.777,4042.735a.461.461,0,0,1-.464-.263.39.39,0,0,1,.083-.457c.162-.172.326-.343.493-.51a.445.445,0,0,1,.636-.017.435.435,0,0,1-.005.623c-.163.171-.327.342-.5.5A.935.935,0,0,1-2350.777,4042.735Z" transform="translate(-274.535 -471.349)" fill="#fff" fill-rule="evenodd"/>
  </g>
</svg>
