<?xml version="1.0" encoding="utf-8"?>
<!-- Generator: Adobe Illustrator 16.0.0, SVG Export Plug-In . SVG Version: 6.00 Build 0)  -->
<!DOCTYPE svg PUBLIC "-//W3C//DTD SVG 1.1//EN" "http://www.w3.org/Graphics/SVG/1.1/DTD/svg11.dtd">
<svg version="1.1" id="Layer_1" xmlns="http://www.w3.org/2000/svg" xmlns:xlink="http://www.w3.org/1999/xlink" x="0px" y="0px"
	 width="32px" height="28px" viewBox="0 0 32 28" enable-background="new 0 0 32 28" xml:space="preserve">
<path fill="#FFFFFF" d="M11.558,7.102c-0.199-0.609-0.41-1.157-0.543-1.722c-0.034-0.146,0.15-0.379,0.288-0.518
	c0.267-0.267,0.88-0.384,0.556-0.909c-0.36-0.581-0.735-0.044-1.084,0.129c-0.173,0.085-0.32,0.221-0.491,0.316
	C9.915,4.602,9.827,4.869,9.975,5.275c0.241,0.67,0.435,1.358,0.677,2.128C10.026,7.293,9.498,7.2,8.902,7.096
	c-0.171,2.197,0.245,4.252,1.037,6.248c-0.688,0.246-1.331,0.47-1.968,0.706c-0.34,0.126-0.716,0.287-0.516,0.746
	c0.187,0.425,0.542,0.259,0.855,0.129c1.531-0.639,3.109-1.014,4.781-0.934c2.756,0.13,4.976,1.313,6.737,3.401
	c0.114,0.135,0.223,0.273,0.322,0.419c0.201,0.295,0.457,0.466,0.779,0.219c0.31-0.238,0.166-0.514-0.024-0.768
	c-1.001-1.333-2.237-2.391-3.727-3.14c-0.452-0.228-0.922-0.418-1.464-0.661c0.264-0.358,0.492-0.733,0.78-1.057
	c1.938-2.177,4.345-3.547,7.264-3.698c2.743-0.145,4.794,1.223,6.138,3.567c1.358,2.37,1.414,4.869,0.421,7.389
	c-0.578,1.466-1.445,2.766-2.55,3.893c-2.239,2.282-5.058,2.797-8.05,1.397c-0.891-0.416-1.69-1.033-2.515-1.584
	c-0.286-0.191-0.585-0.383-0.791-0.035c-0.093,0.158,0.022,0.599,0.186,0.723c0.853,0.645,1.748,1.228,2.788,1.94
	c-0.098,0.045-0.248,0.094-0.372,0.177c-0.258,0.175-0.497,0.377-0.755,0.553c-1.673,1.14-3.443,1.55-5.484,1.076
	c-4.674-1.088-8.415-3.604-11.502-7.192c-0.152-0.175-0.285-0.448-0.273-0.67C1.253,14.755,1.882,9.629,3.956,4.81
	c0.52-1.204,1.302-2.301,2.024-3.407c0.173-0.268,0.567-0.476,0.896-0.545c1.526-0.321,3.063-0.598,4.601-0.847
	c0.235-0.036,0.595,0.09,0.747,0.269c0.872,1.034,1.427,2.242,1.61,3.581c0.134,0.974-0.25,1.811-1.017,2.428
	C12.442,6.589,12.007,6.814,11.558,7.102z"/>
</svg>
