<svg xmlns="http://www.w3.org/2000/svg" width="39.757" height="37.094" viewBox="0 0 39.757 37.094">
  <path id="Path_975" data-name="Path 975" d="M187.265,1539.4c-.264-.809-.543-1.534-.717-2.284-.045-.193.2-.5.382-.684.352-.353,1.165-.51.734-1.205-.476-.771-.973-.058-1.435.17-.229.112-.424.3-.65.419a.826.826,0,0,0-.41,1.161c.319.89.576,1.8.895,2.821-.829-.145-1.526-.27-2.315-.407a18.242,18.242,0,0,0,1.373,8.279c-.913.327-1.763.623-2.608.936-.451.169-.947.38-.682.988.245.566.719.346,1.134.174a14.477,14.477,0,0,1,6.337-1.239,12,12,0,0,1,8.928,4.508c.15.177.294.36.427.553.264.39.605.619,1.031.292.41-.316.219-.683-.032-1.017a13.983,13.983,0,0,0-4.94-4.161c-.6-.3-1.22-.553-1.939-.876.349-.473.652-.973,1.035-1.4a13.616,13.616,0,0,1,9.627-4.9c3.632-.191,6.353,1.621,8.133,4.729a10.86,10.86,0,0,1,.558,9.79,15.433,15.433,0,0,1-3.38,5.16,8.78,8.78,0,0,1-10.665,1.853,26.464,26.464,0,0,1-3.336-2.1c-.378-.253-.774-.507-1.046-.046a1.025,1.025,0,0,0,.244.959c1.131.851,2.318,1.625,3.7,2.571a3.091,3.091,0,0,0-.493.232c-.341.233-.657.5-1,.736a8.752,8.752,0,0,1-7.266,1.423,28.167,28.167,0,0,1-15.244-9.528,1.42,1.42,0,0,1-.364-.889c.337-6.871,1.169-13.664,3.919-20.052a30.964,30.964,0,0,1,2.68-4.515,2.005,2.005,0,0,1,1.188-.721c2.022-.426,4.057-.794,6.1-1.123a1.268,1.268,0,0,1,.989.356,9.245,9.245,0,0,1,2.133,4.745,3.4,3.4,0,0,1-1.346,3.217A19.74,19.74,0,0,1,187.265,1539.4Z" transform="translate(-173.275 -1529.992)" fill="#fff" fill-rule="evenodd"/>
</svg>
