<svg xmlns="http://www.w3.org/2000/svg" width="36" height="36" viewBox="0 0 36 36">
  <path id="Subtraction_10" data-name="Subtraction 10" d="M4236.566,14115.326a18,18,0,0,1-15.357-27.4l8.8,4.681c-.2.231-.371.443-.534.647a4.581,4.581,0,0,0,2.355,7.62l.006,0a5.037,5.037,0,0,1-.273-1.567h1.666a3.333,3.333,0,1,0,6.666-.007h1.669a4.894,4.894,0,0,1-.277,1.57h.006a4.479,4.479,0,0,0,2.149-1.126l9.5,5.05a18,18,0,0,1-16.377,10.523Zm4.189-11.267h0a2.643,2.643,0,0,0,0,4.546c.319.243.5.5.5.693s-.183.45-.5.692l1.186,1.58a2.642,2.642,0,0,0,0-4.545.729.729,0,0,1,0-1.387l-1.186-1.58Zm-4.81,0h0a2.643,2.643,0,0,0,0,4.546c.319.243.5.5.5.693s-.183.45-.5.692l1.186,1.58a2.642,2.642,0,0,0,0-4.545.73.73,0,0,1,0-1.387l-1.186-1.58Zm-4.469,0h0a2.644,2.644,0,0,0,0,4.546c.319.24.5.492.5.693s-.183.452-.5.692l1.186,1.58a2.642,2.642,0,0,0,0-4.545c-.319-.243-.5-.5-.5-.693s.183-.451.5-.693l-1.186-1.58Zm22.5-2.173h0l-9.124-4.854a4.665,4.665,0,0,0-1.259-3.846c-.5-.625-.958-1.143-1.36-1.6l-.042-.048c-1.593-1.811-2.3-2.734-2.3-5.668a3.337,3.337,0,0,0-3.332-3.334,3.373,3.373,0,0,0-3.334,3.4,6.333,6.333,0,0,1-1.2,4.274l-8.983-4.776a18.006,18.006,0,0,1,30.932,16.447Z" transform="translate(-4218.564 -14079.326)"/>
</svg>
