<svg xmlns="http://www.w3.org/2000/svg" width="20.835" height="37.303" viewBox="0 0 20.835 37.303">
  <g id="XMLID_2181_" transform="translate(-30.021 0)">
    <g id="Group_4016" data-name="Group 4016" transform="translate(30.021 0)">
      <path id="XMLID_79_" d="M146.128,25.815V4.391A4.388,4.388,0,0,0,141.74,0,4.447,4.447,0,0,0,137.352,4.4c0,.42,0,21.417,0,21.417a6.582,6.582,0,1,0,8.776,0Zm-4.388,8.2a3.3,3.3,0,0,1-1.1-6.394V13.168h2.194v14.45A3.3,3.3,0,0,1,141.74,34.012Z" transform="translate(-127.478 0)"/>
      <path id="XMLID_78_" d="M211.118,405.04a1.1,1.1,0,1,0,1.1,1.1A1.1,1.1,0,0,0,211.118,405.04Z" transform="translate(-196.856 -375.417)"/>
      <path id="XMLID_77_" d="M30.021,45.04H36.6v2.194H30.021Z" transform="translate(-30.021 -41.746)"/>
      <path id="XMLID_76_" d="M60.021,105.04h4.388v2.194H60.021Z" transform="translate(-57.827 -97.358)"/>
      <path id="XMLID_75_" d="M30.021,165.04H36.6v2.194H30.021Z" transform="translate(-30.021 -152.97)"/>
      <path id="XMLID_74_" d="M60.021,225.04h4.388v2.194H60.021Z" transform="translate(-57.827 -208.581)"/>
      <path id="XMLID_73_" d="M30.021,285.04H36.6v2.194H30.021Z" transform="translate(-30.021 -264.193)"/>
    </g>
  </g>
</svg>
