<svg xmlns="http://www.w3.org/2000/svg" width="37.968" height="43.034" viewBox="0 0 37.968 43.034">
  <g id="XMLID_2181_" transform="translate(-30.021 0)">
    <g id="Group_4016" data-name="Group 4016" transform="translate(30.021 0)">
      <path id="XMLID_79_" d="M147.812,29.781V5.066A5.062,5.062,0,0,0,142.75,0a5.131,5.131,0,0,0-5.062,5.07c0,.484,0,24.708,0,24.708a7.593,7.593,0,1,0,10.125,0Zm-5.062,9.456a3.8,3.8,0,0,1-1.266-7.376V15.191h2.531V31.861A3.8,3.8,0,0,1,142.75,39.237Z" transform="translate(-126.297 0)" fill="#fff"/>
      <path id="XMLID_78_" d="M211.287,405.04a1.266,1.266,0,1,0,1.266,1.266A1.267,1.267,0,0,0,211.287,405.04Z" transform="translate(-194.834 -370.865)" fill="#fff"/>
      <path id="XMLID_77_" d="M30.021,45.04h7.594v2.531H30.021Z" transform="translate(-30.021 -41.24)" fill="#fff"/>
      <path id="XMLID_76_" d="M60.021,105.04h5.062v2.531H60.021Z" transform="translate(-57.49 -96.177)" fill="#fff"/>
      <path id="XMLID_75_" d="M30.021,165.04h7.594v2.531H30.021Z" transform="translate(-30.021 -151.115)" fill="#fff"/>
      <path id="XMLID_74_" d="M60.021,225.04h5.062v2.531H60.021Z" transform="translate(-57.49 -206.053)" fill="#fff"/>
      <path id="XMLID_73_" d="M30.021,285.04h7.594v2.531H30.021Z" transform="translate(-30.021 -260.99)" fill="#fff"/>
      <path id="XMLID_72_" d="M352.146,34.277l-3.038,2.278V15.04h-2.531V36.555l-3.037-2.278L342.021,36.3l5.822,4.366,5.822-4.366Z" transform="translate(-315.696 -13.771)" fill="#fff"/>
    </g>
  </g>
</svg>
