<svg xmlns="http://www.w3.org/2000/svg" width="33.257" height="34" viewBox="0 0 33.257 34">
  <g id="Layer_15" data-name="Layer 15" transform="translate(-4.365 -3)">
    <path id="Path_1031" data-name="Path 1031" d="M45.459,15.919A6.459,6.459,0,1,0,39,9.459a6.459,6.459,0,0,0,6.459,6.459ZM48.4,10.047H47.221a.587.587,0,0,1-.352-1.057l.94-.7H46.047V7.111H49.57a.587.587,0,0,1,.352,1.057l-1.034.775A1.762,1.762,0,0,1,48.4,12.4h-.587a1.762,1.762,0,0,1-1.762-1.762h1.174a.587.587,0,0,0,.587.587H48.4a.587.587,0,0,0,0-1.174ZM40.934,8.113l.83-.83,1.346,1.346,1.346-1.346.83.83L43.941,9.459l1.346,1.346-.83.83L43.111,10.29l-1.346,1.346-.83-.83L42.28,9.459Z" transform="translate(-14.297)"/>
    <path id="Path_1032" data-name="Path 1032" d="M20.841,49.271a.587.587,0,0,1-.5,0L9.268,44.1l-4.9,2.29,16.228,7.575L36.821,46.39l-4.9-2.29Z" transform="translate(0 -16.965)"/>
    <path id="Path_1033" data-name="Path 1033" d="M31.163,22.088a7.644,7.644,0,0,1-7.316-5.468L20.593,15.1,4.365,22.675,20.593,30.25l16.228-7.575L34.2,21.453A7.589,7.589,0,0,1,31.163,22.088Z" transform="translate(0 -4.995)"/>
    <path id="Path_1034" data-name="Path 1034" d="M20.841,39.271a.587.587,0,0,1-.5,0L9.268,34.1l-4.9,2.29,16.228,7.575L36.821,36.39l-4.9-2.29Z" transform="translate(0 -12.837)"/>
  </g>
</svg>
