<svg xmlns="http://www.w3.org/2000/svg" width="40.13" height="40.13" viewBox="0 0 40.13 40.13">
  <path id="Subtraction_5" data-name="Subtraction 5" d="M4239.067,14119.455a20.074,20.074,0,0,1-17.982-28.981,20.259,20.259,0,0,1,5.59-6.867l19.867,34.41A19.973,19.973,0,0,1,4239.067,14119.455Zm-7.935-25.383h0l-.531.227c-2.542,1.082-4.944,2.1-5.518,2.417a1.592,1.592,0,0,0-.84.956,1.673,1.673,0,0,0,.169,1.179c.067.07,8.887,9.109,11.312,11.4a2.578,2.578,0,0,0,1.747.822c1.448,0,2.385-1.7,2.392-1.712l.039-.1-8.771-15.187Zm18.461,22.4h0l-20.061-34.745a20.069,20.069,0,0,1,20.062,34.745h0Zm.763-20.538h0l-1.293,3.076c-.255.609-.78,2.407-.149,3.392a1.519,1.519,0,0,0,1.322.658h.085a1.406,1.406,0,0,0,1.258-.6c.66-1,.144-3.028-.209-3.853-.4-.944-.836-2.161-1-2.642l-.011-.03Zm-7.541-9a1.9,1.9,0,0,0-1.393.561c-.77.77-.918,1.413-.5,2.154a38.8,38.8,0,0,1-3.972,1.91l5.779,10.007c1.043-2.81,1.558-4.183,1.672-4.454a11.984,11.984,0,0,1,1.651-2.293,2.964,2.964,0,0,0,1.194.276,1.766,1.766,0,0,0,1.3-.521,1.742,1.742,0,0,0,.192-2.388l-.023-.04-.015-.025-.023-.041-4.985-4.986h0l-.008,0A2.614,2.614,0,0,0,4242.816,14086.939Z" transform="translate(-4219 -14079.325)" fill="#fff"/>
</svg>
