<svg version="1.2" xmlns="http://www.w3.org/2000/svg" viewBox="0 0 26 26" width="26" height="26">
	<title>instragram-svg</title>
	<style>
		.s0 { fill: #ffffff } 
		.s1 { fill: #000000 } 
	</style>
	<g id="Group_909">
		<path id="Rectangle_33" class="s0" d="m0 3c0-1.7 1.3-3 3-3h20c1.7 0 3 1.3 3 3v20c0 1.7-1.3 3-3 3h-20c-1.7 0-3-1.3-3-3z"/>
	</g>
	<path id="Layer" fill-rule="evenodd" class="s1" d="m8.2 6h2.2l1.8 2.5 1.8 2.4 1.5-1.6c0.9-0.9 1.9-2 2.3-2.5l0.8-0.8h0.6 0.6l-0.3 0.4c-1.2 1.3-4.9 5.3-4.9 5.3 0 0 0.6 0.8 1.3 1.7 0.7 0.9 1.4 1.9 1.7 2.3 0.3 0.3 1 1.3 1.7 2.2 0.6 0.9 1.2 1.6 1.2 1.7 0 0-0.4 0-2.2 0h-2.1l-1.4-1.9c-0.8-1-1.7-2.2-2-2.6l-0.6-0.8h-0.1c0 0.1-1 1.2-2.2 2.5-1.2 1.3-2.3 2.4-2.4 2.6l-0.2 0.2h-0.7c-0.3 0-0.6 0-0.6 0 0 0 1.2-1.4 2.7-3 1.5-1.6 2.7-2.9 2.8-3l0.1-0.1-1.7-2.3c-0.9-1.3-2.2-2.9-2.8-3.7-0.6-0.8-1.1-1.5-1.1-1.5 0 0 1 0 2.2 0zm1.7 0.9h-1c-0.8 0-1 0-1 0.1q0.1 0 6.8 9.1l2 2.6h0.9c0.8 0 1-0.1 1-0.1 0 0-0.9-1.2-2-2.6-1-1.4-2.4-3.3-3-4.1-0.7-0.9-1.8-2.3-2.5-3.3z"/>
</svg>