<svg xmlns="http://www.w3.org/2000/svg" width="20.479" height="17.309" viewBox="0 0 20.479 17.309">
  <path id="Path_669" data-name="Path 669" d="M231.1,82.6a8.144,8.144,0,0,1-2.408.664,4.34,4.34,0,0,0,1.846-2.411,8.17,8.17,0,0,1-2.664,1.056,4.085,4.085,0,0,0-5.932-.195,4.447,4.447,0,0,0-1.325,3.176,4.588,4.588,0,0,0,.109,1,11.759,11.759,0,0,1-8.643-4.556,4.477,4.477,0,0,0,1.278,5.824,4.06,4.06,0,0,1-1.917-.551v.06a4.318,4.318,0,0,0,3.366,4.27,4.13,4.13,0,0,1-1.1.159,4.379,4.379,0,0,1-.792-.08,4.226,4.226,0,0,0,3.915,3.029,8.2,8.2,0,0,1-5.206,1.866,8.453,8.453,0,0,1-1-.06,11.579,11.579,0,0,0,6.432,1.992c7.71,0,11.933-6.641,11.933-12.405v-.564A8.865,8.865,0,0,0,231.1,82.6Z" transform="translate(-210.619 -80.535)" fill="#fff"/>
</svg>
