<svg version="1.2" xmlns="http://www.w3.org/2000/svg" viewBox="0 0 26 26" width="26" height="26">
	<title>instragram-svg</title>
	<style>
		.s0 { fill: #ffffff } 
		.s1 { fill: #000000 } 
	</style>
	<g id="Group_909">
		<path id="Rectangle_33" class="s0" d="m0 3c0-1.7 1.3-3 3-3h20c1.7 0 3 1.3 3 3v20c0 1.7-1.3 3-3 3h-20c-1.7 0-3-1.3-3-3z"/>
	</g>
	<path id="Layer" fill-rule="evenodd" class="s1" d="m7.4 6h2.4l2 2.7 2 2.7 1.6-1.8c0.9-1 2-2.2 2.5-2.7l0.8-0.9h0.7 0.8l-0.4 0.4c-1.4 1.5-5.4 5.8-5.4 5.8 0 0 0.6 0.9 1.4 1.9 0.8 1 1.6 2.1 1.9 2.5 0.3 0.4 1.1 1.5 1.8 2.5 0.7 0.9 1.3 1.7 1.4 1.7 0 0.1-0.4 0.1-2.4 0.1h-2.3l-1.6-2.1c-0.8-1.1-1.8-2.4-2.2-2.9l-0.6-0.9-0.1 0.1c-0.1 0.1-1.2 1.3-2.5 2.7-1.3 1.4-2.5 2.7-2.6 2.8l-0.2 0.3h-0.7c-0.4 0-0.7 0-0.7 0 0-0.1 1.3-1.5 3-3.3 1.6-1.7 3-3.2 3-3.3l0.1-0.1-1.8-2.5c-1.1-1.4-2.4-3.2-3.1-4.1-0.6-0.9-1.2-1.6-1.2-1.6 0 0 1.1 0 2.4 0zm1.8 1h-1.1c-0.8 0-1 0-1 0.1q0 0 7.4 9.9l2.2 2.8h1c0.9 0 1.1 0 1.1 0 0 0-1-1.3-2.2-2.9-1.1-1.5-2.6-3.6-3.3-4.5-0.7-0.9-1.9-2.5-2.7-3.5z"/>
</svg>