<svg xmlns="http://www.w3.org/2000/svg" width="35.001" height="35" viewBox="0 0 35.001 35">
  <g id="water-resistant" transform="translate(0 -0.006)">
    <path id="Path_1048" data-name="Path 1048" d="M33,369.62c-2.3.407-2.5,1.969-4.517,1.969a3.066,3.066,0,0,1-2.132-.822,5.205,5.205,0,0,0-6.719,0,3.177,3.177,0,0,1-4.264,0,5.205,5.205,0,0,0-6.719,0,3.065,3.065,0,0,1-2.132.822C4.5,371.589,4.3,370.026,2,369.62A1.708,1.708,0,0,0,0,371.3v4.248a1.714,1.714,0,0,0,1.493,1.7,3.238,3.238,0,0,1,1.664.794,5.06,5.06,0,0,0,3.359,1.229,5.061,5.061,0,0,0,3.359-1.229,3.177,3.177,0,0,1,4.264,0,5.205,5.205,0,0,0,6.719,0,3.178,3.178,0,0,1,4.265,0,5.06,5.06,0,0,0,3.36,1.229c2.881,0,3.3-1.806,5.024-2.023a1.714,1.714,0,0,0,1.493-1.7V371.3a1.708,1.708,0,0,0-2-1.684Z" transform="translate(0 -344.27)" fill="#fff"/>
    <path id="Path_1049" data-name="Path 1049" d="M48.048,204.588l12.488,6.463a2.64,2.64,0,0,0,2.423,0l9.848-5.1-.462,1.012a1.025,1.025,0,1,0,1.865.852l1.692-3.7a1.026,1.026,0,0,0-.785-1.454l-4.045-.566a1.025,1.025,0,1,0-.284,2.031l.858.12-9.629,4.983a.586.586,0,0,1-.538,0L48.99,202.767a1.025,1.025,0,0,0-.943,1.821Z" transform="translate(-44.247 -188.265)" fill="#fff"/>
    <path id="Path_1050" data-name="Path 1050" d="M183.956,13.164a5.682,5.682,0,0,0,.08-5.578l-3.7-6.833a1.429,1.429,0,0,0-2.512,0l-3.7,6.833a5.682,5.682,0,0,0,.08,5.578A5.619,5.619,0,0,0,183.956,13.164Z" transform="translate(-161.584 0)" fill="#fff"/>
  </g>
</svg>
