<svg xmlns="http://www.w3.org/2000/svg" width="31.998" height="32" viewBox="0 0 31.998 32">
  <g id="Group_4042" data-name="Group 4042" transform="translate(1823.163 -1619.442)">
    <path id="Path_1044" data-name="Path 1044" d="M-1822.933,1637.819a15.752,15.752,0,0,1,5.667-14.777,16,16,0,0,1,18.654-1.126,15.934,15.934,0,0,1,7.251,15.9Z" transform="translate(0 0)" fill="#fff" fill-rule="evenodd"/>
    <path id="Path_1045" data-name="Path 1045" d="M-1783.857,1876.244c-.333.785-.638,1.516-.958,2.239-.033.074-.158.123-.25.15a1.044,1.044,0,0,1-.282.006q-13.821,0-27.643.008a.593.593,0,0,1-.671-.414c-.244-.653-.521-1.294-.8-1.99Z" transform="translate(-7.992 -235.984)" fill="#fff" fill-rule="evenodd"/>
    <path id="Path_1046" data-name="Path 1046" d="M-1757.711,1935.535c-.54.592-1.088,1.177-1.617,1.779a1.568,1.568,0,0,1-1.3.537q-10.008-.033-20.015-.008a.866.866,0,0,1-.714-.279c-.534-.59-1.083-1.167-1.622-1.752a4.162,4.162,0,0,1-.263-.363h25.468Z" transform="translate(-36.68 -290.389)" fill="#fff" fill-rule="evenodd"/>
    <path id="Path_1047" data-name="Path 1047" d="M-1708.878,1994.633h13.484a14.458,14.458,0,0,1-6.747,1.585A14.465,14.465,0,0,1-1708.878,1994.633Z" transform="translate(-105.021 -344.776)" fill="#fff" fill-rule="evenodd"/>
  </g>
</svg>
