<svg xmlns="http://www.w3.org/2000/svg" width="58" height="56" viewBox="0 0 58 56">
  <g id="Group_908" data-name="Group 908" transform="translate(0 0)">
    <rect id="Rectangle_32" data-name="Rectangle 32" width="58" height="56" rx="3" transform="translate(0 0)" opacity="0.14"/>
    <path id="Path_670" data-name="Path 670" d="M337.112,88.228a6.071,6.071,0,0,0-1.1-2.763,3.969,3.969,0,0,0-2.789-1.173c-3.892-.278-9.721-.278-9.721-.278h0s-5.829,0-9.721.278a3.967,3.967,0,0,0-2.789,1.173,6.071,6.071,0,0,0-1.1,2.763,42.137,42.137,0,0,0-.278,4.5v2.111a42.166,42.166,0,0,0,.278,4.5,5.991,5.991,0,0,0,1.1,2.754,4.684,4.684,0,0,0,3.066,1.191c2.224.216,9.453.277,9.453.277s5.838,0,9.729-.286a3.987,3.987,0,0,0,2.789-1.182,5.991,5.991,0,0,0,1.1-2.754,42.135,42.135,0,0,0,.278-4.5V92.728A41.923,41.923,0,0,0,337.112,88.228Zm-16.506,9.165V89.574l7.524,3.953Z" transform="translate(-294.608 -66.013)" fill="red"/>
  </g>
</svg>
